<?xml version="1.0" encoding="UTF-8"?>
<!DOCTYPE svg PUBLIC "-//W3C//DTD SVG 1.1//EN" "http://www.w3.org/Graphics/SVG/1.1/DTD/svg11.dtd">
<svg xmlns="http://www.w3.org/2000/svg" version="1.1" width="678px" height="440px" style="shape-rendering:geometricPrecision; text-rendering:geometricPrecision; image-rendering:optimizeQuality; fill-rule:evenodd; clip-rule:evenodd" xmlns:xlink="http://www.w3.org/1999/xlink">
<g><path style="opacity:1" fill="#292841" d="M 485.5,60.5 C 482.53,61.6532 479.863,63.3199 477.5,65.5C 475.8,67.2099 474.467,69.2099 473.5,71.5C 473.624,72.1067 473.957,72.44 474.5,72.5C 474.5,73.1667 474.167,73.5 473.5,73.5C 472.461,77.3421 472.461,81.3421 473.5,85.5C 474.791,85.2627 475.791,85.596 476.5,86.5C 475.351,86.7911 474.684,87.6244 474.5,89C 474.278,91.2747 475.278,92.4413 477.5,92.5C 478.833,94.5 480.167,96.5 481.5,98.5C 476.733,98.1908 472.066,98.6908 467.5,100C 465.963,101.11 465.297,102.61 465.5,104.5C 464.29,107.477 463.29,110.644 462.5,114C 462.57,114.765 462.903,115.265 463.5,115.5C 462.402,116.397 462.402,117.23 463.5,118C 465.92,118.29 468.254,118.79 470.5,119.5C 447.67,120.332 424.67,120.832 401.5,121C 400.069,121.465 398.903,122.299 398,123.5C 396.519,148.077 396.019,172.744 396.5,197.5C 343.499,197.333 290.499,197.5 237.5,198C 237,198.5 236.5,199 236,199.5C 235.333,210.833 235.333,222.167 236,233.5C 236.5,234 237,234.5 237.5,235C 290.499,235.5 343.499,235.667 396.5,235.5C 396.5,258.5 396.5,281.5 396.5,304.5C 468.5,304.5 540.5,304.5 612.5,304.5C 612.667,340.835 612.5,377.168 612,413.5C 611.5,415.333 610.333,416.5 608.5,417C 539.167,417.667 469.833,417.667 400.5,417C 398.667,416.5 397.5,415.333 397,413.5C 396.5,404.506 396.334,395.506 396.5,386.5C 337.095,386.829 277.762,386.496 218.5,385.5C 216.722,383.171 215.722,380.504 215.5,377.5C 215.5,370.5 215.5,363.5 215.5,356.5C 215.5,353.833 215.5,351.167 215.5,348.5C 215.5,347.167 215.5,345.833 215.5,344.5C 215.5,342.167 215.5,339.833 215.5,337.5C 215.5,336.833 215.5,336.167 215.5,335.5C 226.355,326.098 229.855,314.431 226,300.5C 223.188,295.16 219.688,290.493 215.5,286.5C 215.333,198.166 215.5,109.833 216,21.5C 216.374,20.5838 216.874,19.7504 217.5,19C 305.419,17.3387 393.419,17.0054 481.5,18C 483.333,18.5 484.5,19.6667 485,21.5C 485.5,34.4957 485.667,47.4957 485.5,60.5 Z"/></g>
<g><path style="opacity:0.867" fill="#fdd1f8" d="M 536.5,24.5 C 538.268,26.5078 539.934,28.6744 541.5,31C 548.167,33 548.167,35 541.5,37C 539.877,39.0795 538.377,41.2462 537,43.5C 535.167,39 532,35.8333 527.5,34C 532.056,32.2781 535.056,29.1114 536.5,24.5 Z"/></g>
<g><path style="opacity:1" fill="#7d7bb1" d="M 454.5,43.5 C 456.344,45.2789 457.01,47.6122 456.5,50.5C 465.833,51.1667 465.833,51.8333 456.5,52.5C 455.833,61.8333 455.167,61.8333 454.5,52.5C 445.167,51.8333 445.167,51.1667 454.5,50.5C 454.5,48.1667 454.5,45.8333 454.5,43.5 Z"/></g>
<g><path style="opacity:1" fill="#e3d2b0" d="M 244.5,44.5 C 246.792,44.2436 248.959,44.5769 251,45.5C 251.688,46.3317 251.521,46.9984 250.5,47.5C 245.044,46.4789 243.21,48.8123 245,54.5C 246.733,56.6015 248.733,56.9348 251,55.5C 251.483,56.448 251.649,57.448 251.5,58.5C 245.368,60.0232 242.035,57.6898 241.5,51.5C 241.695,48.7819 242.695,46.4486 244.5,44.5 Z"/></g>
<g><path style="opacity:1" fill="#dbcbab" d="M 255.5,48.5 C 262.628,48.7063 264.294,51.873 260.5,58C 254.498,58.9931 252.332,56.4931 254,50.5C 254.717,49.9558 255.217,49.2891 255.5,48.5 Z"/></g>
<g><path style="opacity:1" fill="#decead" d="M 283.5,44.5 C 284.5,44.5 285.5,44.5 286.5,44.5C 286.34,46.1992 286.506,47.8659 287,49.5C 288.333,48.1667 289.667,48.1667 291,49.5C 291.821,52.5541 291.655,55.5541 290.5,58.5C 289.526,56.2573 289.192,53.924 289.5,51.5C 288.5,51.5 287.5,51.5 286.5,51.5C 286.5,53.8333 286.5,56.1667 286.5,58.5C 285.5,58.5 284.5,58.5 283.5,58.5C 283.5,53.8333 283.5,49.1667 283.5,44.5 Z"/></g>
<g><path style="opacity:1" fill="#e6d6b2" d="M 276.5,48.5 C 278.144,48.2865 279.644,48.6198 281,49.5C 281.667,50.1667 281.667,50.8333 281,51.5C 276.739,50.2296 275.572,51.7296 277.5,56C 278.784,56.6838 279.951,56.5171 281,55.5C 281.483,56.448 281.649,57.448 281.5,58.5C 274.935,59.578 272.768,56.9114 275,50.5C 275.717,49.9558 276.217,49.2891 276.5,48.5 Z"/></g>
<g><path style="opacity:1" fill="#ffa6d1" d="M 559.5,68.5 C 556.736,67.035 553.903,65.7017 551,64.5C 549.289,64.4393 547.956,65.1059 547,66.5C 544.012,74.7889 541.178,83.1222 538.5,91.5C 534.032,88.8633 529.698,86.03 525.5,83C 524.177,82.1841 523.511,81.0174 523.5,79.5C 528.604,69.4655 534.604,59.9655 541.5,51C 547.394,49.9625 553.061,50.6292 558.5,53C 560.726,54.6195 562.06,56.7862 562.5,59.5C 561.692,62.5917 560.692,65.5917 559.5,68.5 Z"/></g>
<g><path style="opacity:1" fill="#3e3a4d" d="M 256.5,50.5 C 257.5,50.5 258.5,50.5 259.5,50.5C 259.5,52.5 259.5,54.5 259.5,56.5C 255.556,56.1156 254.556,54.1156 256.5,50.5 Z"/></g>
<g><path style="opacity:1" fill="#cabba1" d="M 265.5,48.5 C 268.044,48.1043 270.211,48.771 272,50.5C 272.497,53.146 272.664,55.8127 272.5,58.5C 269.552,58.7771 266.719,58.4438 264,57.5C 263.333,56.5 263.333,55.5 264,54.5C 265.78,53.4063 267.614,52.4063 269.5,51.5C 267.922,50.7022 266.256,50.2022 264.5,50C 265.056,49.6174 265.389,49.1174 265.5,48.5 Z"/></g>
<g><path style="opacity:0.981" fill="#fd77b7" d="M 485.5,60.5 C 489.846,60.3343 494.179,60.501 498.5,61C 507.838,65.8415 516.171,72.0082 523.5,79.5C 523.511,81.0174 524.177,82.1841 525.5,83C 529.698,86.03 534.032,88.8633 538.5,91.5C 541.178,83.1222 544.012,74.7889 547,66.5C 547.956,65.1059 549.289,64.4393 551,64.5C 553.903,65.7017 556.736,67.035 559.5,68.5C 566.167,73.4936 571.167,79.8269 574.5,87.5C 570.825,94.8502 567.158,102.184 563.5,109.5C 554.068,108.858 544.734,108.191 535.5,107.5C 537.882,101.551 537.216,101.218 533.5,106.5C 532.833,106.5 532.167,106.5 531.5,106.5C 522.994,101.505 515.494,95.1714 509,87.5C 504.287,81.2426 499.454,75.076 494.5,69C 489.478,64.6644 483.812,63.4978 477.5,65.5C 479.863,63.3199 482.53,61.6532 485.5,60.5 Z"/></g>
<g><path style="opacity:1" fill="#070608" d="M 531.5,106.5 C 528.696,107.638 525.696,107.805 522.5,107C 508.978,103.436 495.311,100.603 481.5,98.5C 480.167,96.5 478.833,94.5 477.5,92.5C 478.521,90.4767 478.188,88.4767 476.5,86.5C 475.791,85.596 474.791,85.2627 473.5,85.5C 472.461,81.3421 472.461,77.3421 473.5,73.5C 473.5,74.5 473.5,75.5 473.5,76.5C 478.618,76.4134 482.618,73.9134 485.5,69C 480.303,65.0522 476.636,66.2189 474.5,72.5C 473.957,72.44 473.624,72.1067 473.5,71.5C 474.467,69.2099 475.8,67.2099 477.5,65.5C 483.812,63.4978 489.478,64.6644 494.5,69C 499.454,75.076 504.287,81.2426 509,87.5C 515.494,95.1714 522.994,101.505 531.5,106.5 Z"/></g>
<g><path style="opacity:1" fill="#5eadeb" d="M 473.5,73.5 C 474.167,73.5 474.5,73.1667 474.5,72.5C 476.636,66.2189 480.303,65.0522 485.5,69C 482.618,73.9134 478.618,76.4134 473.5,76.5C 473.5,75.5 473.5,74.5 473.5,73.5 Z"/></g>
<g><path style="opacity:1" fill="#6088ef" d="M 257.5,76.5 C 264.35,78.0244 268.017,82.3578 268.5,89.5C 268.228,91.9778 267.562,94.3111 266.5,96.5C 265.764,94.7706 264.43,93.7706 262.5,93.5C 262.483,91.4352 262.15,89.4352 261.5,87.5C 262.678,85.6621 262.345,83.9955 260.5,82.5C 259.5,80.5 258.5,78.5 257.5,76.5 Z"/></g>
<g><path style="opacity:1" fill="#4fbbb3" d="M 251.5,75.5 C 251.762,76.9778 251.429,78.3112 250.5,79.5C 249.311,81.3634 247.978,83.0301 246.5,84.5C 246.5,82.5 246.5,80.5 246.5,78.5C 247.965,77.2632 249.632,76.2632 251.5,75.5 Z"/></g>
<g><path style="opacity:1" fill="#6089ef" d="M 246.5,78.5 C 246.5,80.5 246.5,82.5 246.5,84.5C 246.5,86.8333 246.5,89.1667 246.5,91.5C 246.5,91.8333 246.5,92.1667 246.5,92.5C 245.952,94.5323 244.619,95.5323 242.5,95.5C 239.265,88.8504 240.599,83.1837 246.5,78.5 Z"/></g>
<g><path style="opacity:1" fill="#5fb0ef" d="M 495.5,79.5 C 499.032,82.8712 502.032,86.7045 504.5,91C 503.591,93.3193 501.925,93.9859 499.5,93C 497.115,90.6854 495.115,88.1854 493.5,85.5C 493.611,83.2857 494.278,81.2857 495.5,79.5 Z"/></g>
<g><path style="opacity:1" fill="#efd6ac" d="M 251.5,75.5 C 253.735,75.2053 255.735,75.5386 257.5,76.5C 258.5,78.5 259.5,80.5 260.5,82.5C 260.5,83.1667 260.167,83.5 259.5,83.5C 255.649,81.6518 252.649,82.6518 250.5,86.5C 248.926,87.9842 247.593,89.6508 246.5,91.5C 246.5,89.1667 246.5,86.8333 246.5,84.5C 247.978,83.0301 249.311,81.3634 250.5,79.5C 251.429,78.3112 251.762,76.9778 251.5,75.5 Z"/></g>
<g><path style="opacity:1" fill="#f5eef1" d="M 549.5,94.5 C 550.75,94.4226 551.583,93.756 552,92.5C 552.494,90.8659 552.66,89.1992 552.5,87.5C 551.041,87.4326 549.708,87.7659 548.5,88.5C 548.525,82.9222 550.691,81.5889 555,84.5C 555.837,88.2946 555.504,91.9613 554,95.5C 552.085,96.9156 550.585,96.5822 549.5,94.5 Z"/></g>
<g><path style="opacity:1" fill="#7e3931" d="M 259.5,83.5 C 259.762,84.9778 259.429,86.3112 258.5,87.5C 256.664,88.0276 254.997,88.6942 253.5,89.5C 252.883,89.6107 252.383,89.944 252,90.5C 251.722,89.5842 251.222,88.9175 250.5,88.5C 250.5,87.8333 250.5,87.1667 250.5,86.5C 252.649,82.6518 255.649,81.6518 259.5,83.5 Z"/></g>
<g><path style="opacity:1" fill="#cfd0d3" d="M 277.5,84.5 C 279.388,86.9878 280.055,89.9878 279.5,93.5C 280.978,93.238 282.311,93.5713 283.5,94.5C 281.604,95.4656 279.604,95.7989 277.5,95.5C 277.5,91.8333 277.5,88.1667 277.5,84.5 Z"/></g>
<g><path style="opacity:1" fill="#5eabe8" d="M 476.5,86.5 C 478.188,88.4767 478.521,90.4767 477.5,92.5C 475.278,92.4413 474.278,91.2747 474.5,89C 474.684,87.6244 475.351,86.7911 476.5,86.5 Z"/></g>
<g><path style="opacity:1" fill="#141213" d="M 549.5,94.5 C 548.659,92.6208 548.325,90.6208 548.5,88.5C 549.708,87.7659 551.041,87.4326 552.5,87.5C 552.66,89.1992 552.494,90.8659 552,92.5C 551.583,93.756 550.75,94.4226 549.5,94.5 Z"/></g>
<g><path style="opacity:1" fill="#d1dcfb" d="M 261.5,87.5 C 262.15,89.4352 262.483,91.4352 262.5,93.5C 263.167,95.1667 263.833,96.8333 264.5,98.5C 263.198,100.822 261.198,102.155 258.5,102.5C 258.936,100.254 259.603,98.0871 260.5,96C 259.177,95.1841 258.511,94.0174 258.5,92.5C 258.498,90.1691 259.331,88.1691 261,86.5C 261.399,86.7284 261.565,87.0618 261.5,87.5 Z"/></g>
<g><path style="opacity:1" fill="#cbadbd" d="M 260.5,82.5 C 262.345,83.9955 262.678,85.6621 261.5,87.5C 261.565,87.0618 261.399,86.7284 261,86.5C 259.331,88.1691 258.498,90.1691 258.5,92.5C 252.792,92.5076 252.459,92.0076 257.5,91C 256.255,90.2086 254.922,89.7086 253.5,89.5C 254.997,88.6942 256.664,88.0276 258.5,87.5C 259.429,86.3112 259.762,84.9778 259.5,83.5C 260.167,83.5 260.5,83.1667 260.5,82.5 Z"/></g>
<g><path style="opacity:1" fill="#bcbdc2" d="M 286.5,87.5 C 288.993,87.3291 290.826,88.3291 292,90.5C 294.068,87.3546 296.568,86.8546 299.5,89C 298.207,89.49 296.873,89.6567 295.5,89.5C 295.5,90.8333 295.5,92.1667 295.5,93.5C 296.978,93.238 298.311,93.5713 299.5,94.5C 296.433,96.0521 293.933,95.3855 292,92.5C 290.62,95.4808 288.454,96.1475 285.5,94.5C 284.073,91.8845 284.406,89.5511 286.5,87.5 Z"/></g>
<g><path style="opacity:1" fill="#302f47" d="M 286.5,89.5 C 287.5,89.5 288.5,89.5 289.5,89.5C 289.5,90.8333 289.5,92.1667 289.5,93.5C 288.5,93.5 287.5,93.5 286.5,93.5C 286.5,92.1667 286.5,90.8333 286.5,89.5 Z"/></g>
<g><path style="opacity:1" fill="#b4b5bb" d="M 309.5,87.5 C 313.5,86.8333 315.167,88.5 314.5,92.5C 309.318,92.5573 309.318,93.224 314.5,94.5C 312.926,95.6309 311.259,95.7975 309.5,95C 308.221,92.5024 308.221,90.0024 309.5,87.5 Z"/></g>
<g><path style="opacity:1" fill="#f9fafb" d="M 250.5,88.5 C 251.222,88.9175 251.722,89.5842 252,90.5C 252.383,89.944 252.883,89.6107 253.5,89.5C 254.922,89.7086 256.255,90.2086 257.5,91C 252.459,92.0076 252.792,92.5076 258.5,92.5C 258.511,94.0174 259.177,95.1841 260.5,96C 259.603,98.0871 258.936,100.254 258.5,102.5C 255.728,103.767 253.061,103.767 250.5,102.5C 249.612,99.9455 249.279,97.2788 249.5,94.5C 249.325,92.3792 249.659,90.3792 250.5,88.5 Z"/></g>
<g><path style="opacity:1" fill="#c8c9cd" d="M 300.5,84.5 C 302.164,85.9488 302.998,87.9488 303,90.5C 307.685,86.5536 308.185,86.8869 304.5,91.5C 308.185,96.1131 307.685,96.4464 303,92.5C 302.751,93.624 302.251,94.624 301.5,95.5C 300.511,91.8927 300.177,88.226 300.5,84.5 Z"/></g>
<g><path style="opacity:1" fill="#7a9cac" d="M 250.5,86.5 C 250.5,87.1667 250.5,87.8333 250.5,88.5C 249.659,90.3792 249.325,92.3792 249.5,94.5C 248.5,93.8333 247.5,93.1667 246.5,92.5C 246.5,92.1667 246.5,91.8333 246.5,91.5C 247.593,89.6508 248.926,87.9842 250.5,86.5 Z"/></g>
<g><path style="opacity:1" fill="#35bbb3" d="M 246.5,92.5 C 247.5,93.1667 248.5,93.8333 249.5,94.5C 249.279,97.2788 249.612,99.9455 250.5,102.5C 246.571,101.569 243.905,99.2359 242.5,95.5C 244.619,95.5323 245.952,94.5323 246.5,92.5 Z"/></g>
<g><path style="opacity:1" fill="#3eb7b5" d="M 262.5,93.5 C 264.43,93.7706 265.764,94.7706 266.5,96.5C 266.167,97.5 265.5,98.1667 264.5,98.5C 263.833,96.8333 263.167,95.1667 262.5,93.5 Z"/></g>
<g><path style="opacity:1" fill="#5eaeec" d="M 510.5,96.5 C 513.283,98.0665 515.949,99.8999 518.5,102C 512.759,104.767 510.093,102.934 510.5,96.5 Z"/></g>
<g><path style="opacity:1" fill="#f6a0c9" d="M 481.5,98.5 C 495.311,100.603 508.978,103.436 522.5,107C 525.696,107.805 528.696,107.638 531.5,106.5C 532.167,106.5 532.833,106.5 533.5,106.5C 532.27,108.297 531.604,110.297 531.5,112.5C 514.978,110.296 498.645,107.129 482.5,103C 476.62,101.99 470.954,102.49 465.5,104.5C 465.297,102.61 465.963,101.11 467.5,100C 472.066,98.6908 476.733,98.1908 481.5,98.5 Z"/></g>
<g><path style="opacity:1" fill="#fca5cf" d="M 465.5,104.5 C 471.592,104.447 477.926,104.614 484.5,105C 493.908,107.019 503.241,109.352 512.5,112C 518.778,113.188 525.112,113.688 531.5,113.5C 531.842,114.338 532.508,114.672 533.5,114.5C 543.5,114.5 553.5,114.5 563.5,114.5C 563.5,116.5 563.5,118.5 563.5,120.5C 545.574,121.652 527.574,121.819 509.5,121C 507.564,120.187 505.564,119.687 503.5,119.5C 491.705,115.935 479.705,114.101 467.5,114C 466.099,114.41 464.766,114.91 463.5,115.5C 462.903,115.265 462.57,114.765 462.5,114C 463.29,110.644 464.29,107.477 465.5,104.5 Z"/></g>
<g><path style="opacity:1" fill="#160e12" d="M 535.5,107.5 C 534.596,108.209 534.263,109.209 534.5,110.5C 533.566,111.568 533.232,112.901 533.5,114.5C 532.508,114.672 531.842,114.338 531.5,113.5C 531.5,113.167 531.5,112.833 531.5,112.5C 531.604,110.297 532.27,108.297 533.5,106.5C 537.216,101.218 537.882,101.551 535.5,107.5 Z"/></g>
<g><path style="opacity:0.983" fill="#fda5cf" d="M 535.5,107.5 C 544.734,108.191 554.068,108.858 563.5,109.5C 563.5,110.5 563.5,111.5 563.5,112.5C 553.442,113.14 543.775,112.473 534.5,110.5C 534.263,109.209 534.596,108.209 535.5,107.5 Z"/></g>
<g><path style="opacity:1" fill="#ff7fbc" d="M 531.5,112.5 C 531.5,112.833 531.5,113.167 531.5,113.5C 525.112,113.688 518.778,113.188 512.5,112C 503.241,109.352 493.908,107.019 484.5,105C 477.926,104.614 471.592,104.447 465.5,104.5C 470.954,102.49 476.62,101.99 482.5,103C 498.645,107.129 514.978,110.296 531.5,112.5 Z"/></g>
<g><path style="opacity:1" fill="#cad9f8" d="M 251.5,111.5 C 266.131,112.436 270.965,119.77 266,133.5C 258.3,141.413 250.633,141.413 243,133.5C 238.48,123.216 241.313,115.883 251.5,111.5 Z"/></g>
<g><path style="opacity:1" fill="#fb7eba" d="M 534.5,110.5 C 543.775,112.473 553.442,113.14 563.5,112.5C 563.5,113.167 563.5,113.833 563.5,114.5C 553.5,114.5 543.5,114.5 533.5,114.5C 533.232,112.901 533.566,111.568 534.5,110.5 Z"/></g>
<g><path style="opacity:1" fill="#130d10" d="M 503.5,119.5 C 492.652,120.725 481.652,120.725 470.5,119.5C 468.254,118.79 465.92,118.29 463.5,118C 462.402,117.23 462.402,116.397 463.5,115.5C 464.766,114.91 466.099,114.41 467.5,114C 479.705,114.101 491.705,115.935 503.5,119.5 Z"/></g>
<g><path style="opacity:1" fill="#7dd8cb" d="M 248.5,117.5 C 251.841,116.843 253.841,118.176 254.5,121.5C 255.722,119.022 257.722,118.022 260.5,118.5C 261.936,121.91 261.603,125.077 259.5,128C 260.449,128.617 261.282,128.451 262,127.5C 261.922,131.752 259.588,133.752 255,133.5C 252.453,133.238 249.953,132.738 247.5,132C 245.968,131.3 244.968,130.134 244.5,128.5C 245.84,124.81 247.174,121.143 248.5,117.5 Z"/></g>
<g><path style="opacity:1" fill="#bfc0c5" d="M 277.5,120.5 C 279.527,120.338 281.527,120.505 283.5,121C 284.022,121.561 284.355,122.228 284.5,123C 284.046,125.422 283.879,127.922 284,130.5C 281.959,131.423 279.792,131.756 277.5,131.5C 277.5,127.833 277.5,124.167 277.5,120.5 Z"/></g>
<g><path style="opacity:1" fill="#cfd0d3" d="M 290.5,120.5 C 291.787,121.871 292.453,123.705 292.5,126C 292.167,127.833 291.833,129.667 291.5,131.5C 290.511,127.893 290.177,124.226 290.5,120.5 Z"/></g>
<g><path style="opacity:1" fill="#cfd0d3" d="M 294.5,120.5 C 295.787,121.871 296.453,123.705 296.5,126C 296.167,127.833 295.833,129.667 295.5,131.5C 294.511,127.893 294.177,124.226 294.5,120.5 Z"/></g>
<g><path style="opacity:1" fill="#1c1b29" d="M 470.5,119.5 C 481.652,120.725 492.652,120.725 503.5,119.5C 505.564,119.687 507.564,120.187 509.5,121C 527.574,121.819 545.574,121.652 563.5,120.5C 578.504,120.333 593.504,120.5 608.5,121C 610.333,121.5 611.5,122.667 612,124.5C 612.5,184.499 612.667,244.499 612.5,304.5C 540.5,304.5 468.5,304.5 396.5,304.5C 396.5,281.5 396.5,258.5 396.5,235.5C 396.5,222.833 396.5,210.167 396.5,197.5C 396.019,172.744 396.519,148.077 398,123.5C 398.903,122.299 400.069,121.465 401.5,121C 424.67,120.832 447.67,120.332 470.5,119.5 Z"/></g>
<g><path style="opacity:1" fill="#c6c6ca" d="M 286.5,120.5 C 288.337,120.639 288.67,121.306 287.5,122.5C 286.702,122.043 286.369,121.376 286.5,120.5 Z"/></g>
<g><path style="opacity:1" fill="#babbc0" d="M 337.5,121.5 C 341.387,122.657 342.054,124.657 339.5,127.5C 339.919,128.672 340.585,129.672 341.5,130.5C 340.349,131.731 339.183,131.731 338,130.5C 336.937,127.432 336.77,124.432 337.5,121.5 Z"/></g>
<g><path style="opacity:1" fill="#bebfc4" d="M 286.5,123.5 C 287.748,124.334 288.415,125.667 288.5,127.5C 288.167,128.833 287.833,130.167 287.5,131.5C 286.52,128.914 286.187,126.247 286.5,123.5 Z"/></g>
<g><path style="opacity:1" fill="#c2c3c7" d="M 322.5,123.5 C 324.144,123.286 325.644,123.62 327,124.5C 328.67,131.18 326.67,132.846 321,129.5C 320.252,127.16 320.752,125.16 322.5,123.5 Z"/></g>
<g><path style="opacity:1" fill="#323149" d="M 322.5,125.5 C 323.5,125.5 324.5,125.5 325.5,125.5C 325.5,126.833 325.5,128.167 325.5,129.5C 324.5,129.5 323.5,129.5 322.5,129.5C 322.5,128.167 322.5,126.833 322.5,125.5 Z"/></g>
<g><path style="opacity:1" fill="#c8c8cc" d="M 329.5,123.5 C 335.204,123.146 337.037,125.813 335,131.5C 333.956,130.377 333.29,129.044 333,127.5C 331.383,128.536 331.216,129.703 332.5,131C 331.552,131.483 330.552,131.649 329.5,131.5C 328.79,128.14 330.124,126.307 333.5,126C 331.563,125.878 330.23,125.045 329.5,123.5 Z"/></g>
<g><path style="opacity:1" fill="#829cf9" d="M 249.5,126.5 C 250.5,126.5 251.5,126.5 252.5,126.5C 252.5,127.5 252.5,128.5 252.5,129.5C 251.5,129.5 250.5,129.5 249.5,129.5C 249.5,128.5 249.5,127.5 249.5,126.5 Z"/></g>
<g><path style="opacity:1" fill="#37364d" d="M 279.5,126.5 C 280.5,126.5 281.5,126.5 282.5,126.5C 282.5,127.5 282.5,128.5 282.5,129.5C 281.5,129.5 280.5,129.5 279.5,129.5C 279.5,128.5 279.5,127.5 279.5,126.5 Z"/></g>
<g><path style="opacity:1" fill="#bbbcc1" d="M 298.5,123.5 C 300.093,124.348 301.26,125.681 302,127.5C 302.309,126.234 302.809,125.067 303.5,124C 304.332,123.312 304.998,123.479 305.5,124.5C 304.039,127.382 302.873,130.382 302,133.5C 300.817,134.731 299.651,134.731 298.5,133.5C 299.311,132.784 299.978,131.95 300.5,131C 299.521,128.567 298.855,126.067 298.5,123.5 Z"/></g>
<g><path style="opacity:1" fill="#bdbec3" d="M 312.5,120.5 C 320.196,120.771 320.363,121.771 313,123.5C 312.257,125.441 312.424,127.274 313.5,129C 316.858,129.373 317.192,128.539 314.5,126.5C 316.045,125.548 317.712,125.215 319.5,125.5C 320.247,131.067 317.913,132.9 312.5,131C 308.565,127.504 308.565,124.004 312.5,120.5 Z"/></g>
<g><path style="opacity:1" fill="#fcb669" d="M 550.5,222.5 C 544.199,221.491 539.199,223.491 535.5,228.5C 535.167,228.5 534.833,228.5 534.5,228.5C 535.907,226.692 537.074,224.692 538,222.5C 540.021,210.892 537.687,200.225 531,190.5C 531.414,183.19 531.414,175.857 531,168.5C 529.389,164.725 526.889,161.725 523.5,159.5C 517.918,155.53 511.585,153.53 504.5,153.5C 502.852,151.544 502.185,149.211 502.5,146.5C 502.747,143.495 501.747,140.995 499.5,139C 527.683,137.875 546.85,150.375 557,176.5C 561.385,192.745 559.218,208.079 550.5,222.5 Z"/></g>
<g><path style="opacity:1" fill="#fbb569" d="M 483.5,165.5 C 482.253,168.04 481.253,170.706 480.5,173.5C 476.167,169.5 471.833,165.5 467.5,161.5C 466.447,162.438 465.78,163.605 465.5,165C 469.276,173.385 473.442,181.552 478,189.5C 478.495,191.473 478.662,193.473 478.5,195.5C 477.374,201.133 473.874,204.8 468,206.5C 465.88,205.541 463.713,205.374 461.5,206C 459.257,207.136 456.924,207.97 454.5,208.5C 447.876,184.538 454.21,164.704 473.5,149C 478.888,145.639 484.554,142.806 490.5,140.5C 490.676,142.672 490.843,145.005 491,147.5C 491.97,149.274 492.804,151.107 493.5,153C 490.561,155.721 487.728,158.554 485,161.5C 484.209,162.745 483.709,164.078 483.5,165.5 Z"/></g>
<g><path style="opacity:1" fill="#91715b" d="M 502.5,146.5 C 502.185,149.211 502.852,151.544 504.5,153.5C 503.5,153.5 502.5,153.5 501.5,153.5C 501.198,150.941 501.532,148.607 502.5,146.5 Z"/></g>
<g><path style="opacity:1" fill="#4f79e5" d="M 523.5,159.5 C 526.889,161.725 529.389,164.725 531,168.5C 531.414,175.857 531.414,183.19 531,190.5C 537.687,200.225 540.021,210.892 538,222.5C 537.074,224.692 535.907,226.692 534.5,228.5C 520.782,240.883 506.449,241.55 491.5,230.5C 491.05,225.617 489.884,220.95 488,216.5C 485,213.833 482,211.167 479,208.5C 478.501,204.179 478.334,199.846 478.5,195.5C 478.662,193.473 478.495,191.473 478,189.5C 473.442,181.552 469.276,173.385 465.5,165C 465.78,163.605 466.447,162.438 467.5,161.5C 471.833,165.5 476.167,169.5 480.5,173.5C 481.253,170.706 482.253,168.04 483.5,165.5C 486.117,168.147 489.117,170.314 492.5,172C 501.359,173.533 505.359,169.7 504.5,160.5C 511.197,163.437 517.531,163.103 523.5,159.5 Z"/></g>
<g><path style="opacity:1" fill="#222237" d="M 516.5,169.5 C 518.857,169.337 521.19,169.503 523.5,170C 523.957,170.414 524.291,170.914 524.5,171.5C 521.5,172.833 518.5,172.833 515.5,171.5C 515.863,170.817 516.196,170.15 516.5,169.5 Z"/></g>
<g><path style="opacity:1" fill="#a9bbe5" d="M 275.5,171.5 C 276.5,171.5 277.5,171.5 278.5,171.5C 278.827,176.214 278.493,180.88 277.5,185.5C 275.657,185.245 273.657,185.078 271.5,185C 269.556,182.847 269.056,180.347 270,177.5C 271.444,175.845 273.278,175.178 275.5,175.5C 275.5,174.167 275.5,172.833 275.5,171.5 Z"/></g>
<g><path style="opacity:1" fill="#aec1eb" d="M 347.5,171.5 C 348.5,171.5 349.5,171.5 350.5,171.5C 350.827,176.214 350.493,180.88 349.5,185.5C 347.657,185.245 345.657,185.078 343.5,185C 340.941,182.075 340.941,179.075 343.5,176C 344.793,175.51 346.127,175.343 347.5,175.5C 347.5,174.167 347.5,172.833 347.5,171.5 Z"/></g>
<g><path style="opacity:1" fill="#abbee8" d="M 312.5,171.5 C 313.5,171.5 314.5,171.5 315.5,171.5C 315.5,175.5 315.5,179.5 315.5,183.5C 317.288,183.215 318.955,183.548 320.5,184.5C 317.914,185.48 315.247,185.813 312.5,185.5C 312.5,180.833 312.5,176.167 312.5,171.5 Z"/></g>
<g><path style="opacity:1" fill="#adc0ea" d="M 243.5,171.5 C 245.467,171.261 247.301,171.594 249,172.5C 249.688,173.332 249.521,173.998 248.5,174.5C 247.264,173.754 245.93,173.421 244.5,173.5C 244.22,176.388 245.553,177.888 248.5,178C 251.167,180.333 251.167,182.667 248.5,185C 246.19,185.497 243.857,185.663 241.5,185.5C 241.281,184.325 241.614,183.325 242.5,182.5C 244.071,183.309 245.738,183.643 247.5,183.5C 247.649,182.448 247.483,181.448 247,180.5C 241.393,179.029 240.226,176.029 243.5,171.5 Z"/></g>
<g><path style="opacity:1" fill="#a9bbe5" d="M 252.5,172.5 C 253.5,172.5 254.5,172.5 255.5,172.5C 255.48,174.143 256.147,175.476 257.5,176.5C 254.833,179.167 254.833,181.833 257.5,184.5C 255.994,185.747 254.494,185.747 253,184.5C 252.003,180.428 251.836,176.428 252.5,172.5 Z"/></g>
<g><path style="opacity:1" fill="#a9bbe4" d="M 301.5,172.5 C 302.5,172.5 303.5,172.5 304.5,172.5C 304.48,174.143 305.147,175.476 306.5,176.5C 303.833,179.167 303.833,181.833 306.5,184.5C 304.653,185.83 303.153,185.497 302,183.5C 300.922,179.771 300.755,176.104 301.5,172.5 Z"/></g>
<g><path style="opacity:1" fill="#b8ccf8" d="M 259.5,175.5 C 261.369,177.635 262.036,180.302 261.5,183.5C 262.822,183.67 263.989,183.337 265,182.5C 265.186,180.1 265.686,177.766 266.5,175.5C 267.833,178.833 267.833,182.167 266.5,185.5C 264.398,185.521 262.232,185.187 260,184.5C 259.502,181.518 259.335,178.518 259.5,175.5 Z"/></g>
<g><path style="opacity:1" fill="#a5b7e0" d="M 290.5,175.5 C 293.325,175.758 296.158,176.092 299,176.5C 299.498,179.482 299.665,182.482 299.5,185.5C 298.5,185.5 297.5,185.5 296.5,185.5C 296.813,182.753 296.48,180.086 295.5,177.5C 294.914,177.709 294.414,178.043 294,178.5C 293.503,180.81 293.337,183.143 293.5,185.5C 292.5,185.5 291.5,185.5 290.5,185.5C 290.5,182.167 290.5,178.833 290.5,175.5 Z"/></g>
<g><path style="opacity:1" fill="#b2c5f0" d="M 332.5,175.5 C 334.792,175.244 336.959,175.577 339,176.5C 339.821,179.554 339.655,182.554 338.5,185.5C 336.398,185.521 334.232,185.187 332,184.5C 331.785,180.872 333.619,178.872 337.5,178.5C 335.345,177.999 333.678,176.999 332.5,175.5 Z"/></g>
<g><path style="opacity:1" fill="#a6b7e0" d="M 282.5,175.5 C 286.833,175.167 288.833,177.167 288.5,181.5C 281.951,181.907 281.951,182.907 288.5,184.5C 280.414,185.853 278.414,182.853 282.5,175.5 Z"/></g>
<g><path style="opacity:1" fill="#a3b4dd" d="M 323.5,175.5 C 328.294,174.627 330.627,176.627 330.5,181.5C 323.338,181.613 323.005,182.613 329.5,184.5C 321.414,185.853 319.414,182.853 323.5,175.5 Z"/></g>
<g><path style="opacity:1" fill="#31314b" d="M 273.5,177.5 C 275.308,178.918 275.975,180.918 275.5,183.5C 274.5,183.5 273.5,183.5 272.5,183.5C 272.325,181.379 272.659,179.379 273.5,177.5 Z"/></g>
<g><path style="opacity:1" fill="#393a56" d="M 345.5,177.5 C 348.513,178.356 349.18,180.189 347.5,183C 346.552,183.483 345.552,183.649 344.5,183.5C 344.325,181.379 344.659,179.379 345.5,177.5 Z"/></g>
<g><path style="opacity:1" fill="#cddaf7" d="M 522.5,191.5 C 520.528,195.092 518.028,195.426 515,192.5C 512.598,187.886 513.098,183.719 516.5,180C 521.634,178.958 524.301,181.124 524.5,186.5C 524.564,188.557 523.898,190.223 522.5,191.5 Z"/></g>
<g><path style="opacity:1" fill="#3c3e5a" d="M 335.5,180.5 C 337.048,180.821 337.715,181.821 337.5,183.5C 334.752,183.598 334.086,182.598 335.5,180.5 Z"/></g>
<g><path style="opacity:1" fill="#222031" d="M 522.5,191.5 C 521.414,191.38 520.747,190.713 520.5,189.5C 520.833,188.833 521.167,188.167 521.5,187.5C 522.429,188.689 522.762,190.022 522.5,191.5 Z"/></g>
<g><path style="opacity:0.787" fill="#5865f2" d="M 97.5,192.5 C 98.8802,195.23 100.547,197.897 102.5,200.5C 100.317,202.707 98.9839,205.374 98.5,208.5C 97.7314,205.128 96.0648,202.295 93.5,200C 96.0244,198.117 97.3577,195.617 97.5,192.5 Z"/></g>
<g><path style="opacity:1" fill="#302f50" d="M 396.5,197.5 C 396.5,210.167 396.5,222.833 396.5,235.5C 343.499,235.667 290.499,235.5 237.5,235C 237,234.5 236.5,234 236,233.5C 235.333,222.167 235.333,210.833 236,199.5C 236.5,199 237,198.5 237.5,198C 290.499,197.5 343.499,197.333 396.5,197.5 Z"/></g>
<g><path style="opacity:1" fill="#eb6767" d="M 478.5,195.5 C 478.334,199.846 478.501,204.179 479,208.5C 482,211.167 485,213.833 488,216.5C 489.884,220.95 491.05,225.617 491.5,230.5C 506.449,241.55 520.782,240.883 534.5,228.5C 534.833,228.5 535.167,228.5 535.5,228.5C 534.701,231.43 534.368,234.43 534.5,237.5C 525.41,243.653 515.243,246.653 504,246.5C 498.693,246.548 493.526,245.715 488.5,244C 485.367,243.14 482.7,241.64 480.5,239.5C 479.128,232.254 475.794,226.087 470.5,221C 466.974,219.663 463.308,219.163 459.5,219.5C 456.512,216.519 454.846,212.852 454.5,208.5C 456.924,207.97 459.257,207.136 461.5,206C 463.713,205.374 465.88,205.541 468,206.5C 473.874,204.8 477.374,201.133 478.5,195.5 Z"/></g>
<g><path style="opacity:1" fill="#cbd4f4" d="M 525.5,204.5 C 525.5,205.833 525.5,207.167 525.5,208.5C 522.102,208.82 518.768,208.487 515.5,207.5C 511.135,205.045 506.469,203.378 501.5,202.5C 502.474,198.991 504.807,197.824 508.5,199C 513.005,204.053 518.671,205.886 525.5,204.5 Z"/></g>
<g><path style="opacity:1" fill="#f5b168" d="M 263.5,226.5 C 263.5,225.833 263.167,225.5 262.5,225.5C 263.018,224.423 263.352,223.256 263.5,222C 262.058,217.978 261.225,213.811 261,209.5C 260.292,208.619 259.458,207.953 258.5,207.5C 256.958,206.699 255.292,206.366 253.5,206.5C 253.5,205.167 253.5,203.833 253.5,202.5C 266.743,204.65 270.909,211.984 266,224.5C 265.292,225.381 264.458,226.047 263.5,226.5 Z"/></g>
<g><path style="opacity:1" fill="#5d1449" d="M 501.5,202.5 C 506.469,203.378 511.135,205.045 515.5,207.5C 518.768,208.487 522.102,208.82 525.5,208.5C 525.5,207.167 525.5,205.833 525.5,204.5C 528.955,205.128 530.122,207.128 529,210.5C 522.869,215.196 516.369,215.696 509.5,212C 506.246,209.253 503.58,206.086 501.5,202.5 Z"/></g>
<g><path style="opacity:1" fill="#587adf" d="M 258.5,207.5 C 259.458,207.953 260.292,208.619 261,209.5C 261.225,213.811 262.058,217.978 263.5,222C 263.352,223.256 263.018,224.423 262.5,225.5C 259.993,228.036 256.993,228.869 253.5,228C 250.856,225.227 248.856,222.06 247.5,218.5C 246.939,215.538 245.939,212.705 244.5,210C 244.667,209.5 244.833,209 245,208.5C 246,209.5 247,210.5 248,211.5C 248.464,210.906 248.631,210.239 248.5,209.5C 249.531,210.355 250.697,211.022 252,211.5C 253.966,209.771 256.132,208.437 258.5,207.5 Z"/></g>
<g><path style="opacity:1" fill="#f5b16a" d="M 248.5,209.5 C 248.631,210.239 248.464,210.906 248,211.5C 247,210.5 246,209.5 245,208.5C 244.833,209 244.667,209.5 244.5,210C 245.939,212.705 246.939,215.538 247.5,218.5C 245.5,219.167 243.5,219.833 241.5,220.5C 239.548,212.735 242.215,207.068 249.5,203.5C 250.287,204.242 250.953,205.075 251.5,206C 250.29,207.039 249.29,208.206 248.5,209.5 Z"/></g>
<g><path style="opacity:1" fill="#e9e9ed" d="M 318.5,211.5 C 319.787,212.871 320.453,214.705 320.5,217C 320.167,218.833 319.833,220.667 319.5,222.5C 318.511,218.893 318.177,215.226 318.5,211.5 Z"/></g>
<g><path style="opacity:1" fill="#eaeaed" d="M 279.5,211.5 C 287.196,211.771 287.363,212.771 280,214.5C 278.416,219.362 279.916,221.028 284.5,219.5C 282.076,217.286 282.743,216.286 286.5,216.5C 287.247,222.067 284.913,223.9 279.5,222C 276.88,218.502 276.88,215.002 279.5,211.5 Z"/></g>
<g><path style="opacity:1" fill="#becbea" d="M 256.5,213.5 C 257.5,213.5 258.5,213.5 259.5,213.5C 259.5,214.5 259.5,215.5 259.5,216.5C 258.5,216.5 257.5,216.5 256.5,216.5C 256.5,215.5 256.5,214.5 256.5,213.5 Z"/></g>
<g><path style="opacity:1" fill="#d8d8de" d="M 288.5,214.5 C 290.225,215.278 291.891,215.611 293.5,215.5C 291.205,217.2 289.872,219.534 289.5,222.5C 288.52,219.914 288.187,217.247 288.5,214.5 Z"/></g>
<g><path style="opacity:1" fill="#cdcdd5" d="M 294.5,214.5 C 300.367,214.206 302.033,216.872 299.5,222.5C 297.722,222.431 295.889,222.097 294,221.5C 294.031,218.799 295.531,217.299 298.5,217C 296.563,216.878 295.23,216.045 294.5,214.5 Z"/></g>
<g><path style="opacity:1" fill="#8c8a9d" d="M 308.5,216.5 C 308.44,215.957 308.107,215.624 307.5,215.5C 306.614,216.325 306.281,217.325 306.5,218.5C 305.5,218.5 304.5,218.5 303.5,218.5C 303.5,217.5 303.5,216.5 303.5,215.5C 305.364,214.207 307.364,214.207 309.5,215.5C 309.376,216.107 309.043,216.44 308.5,216.5 Z"/></g>
<g><path style="opacity:1" fill="#b2acd3" d="M 259.5,219.5 C 257.95,220.72 256.284,220.72 254.5,219.5C 253.227,218.923 253.227,218.257 254.5,217.5C 255.85,218.95 257.516,219.617 259.5,219.5 Z"/></g>
<g><path style="opacity:1" fill="#d3d3da" d="M 323.5,214.5 C 327.349,214.019 329.349,215.686 329.5,219.5C 322.866,219.677 322.866,220.177 329.5,221C 323.419,223.083 321.419,220.916 323.5,214.5 Z"/></g>
<g><path style="opacity:1" fill="#f9b267" d="M 459.5,219.5 C 463.308,219.163 466.974,219.663 470.5,221C 475.794,226.087 479.128,232.254 480.5,239.5C 470.893,235.559 463.893,228.893 459.5,219.5 Z"/></g>
<g><path style="opacity:1" fill="#e97268" d="M 247.5,218.5 C 248.856,222.06 250.856,225.227 253.5,228C 256.993,228.869 259.993,228.036 262.5,225.5C 263.167,225.5 263.5,225.833 263.5,226.5C 256.178,232.292 249.344,231.625 243,224.5C 242.209,223.255 241.709,221.922 241.5,220.5C 243.5,219.833 245.5,219.167 247.5,218.5 Z"/></g>
<g><path style="opacity:1" fill="#682f67" d="M 254.5,219.5 C 256.284,220.72 257.95,220.72 259.5,219.5C 260.746,221.023 260.246,222.023 258,222.5C 256.05,222.293 254.884,221.293 254.5,219.5 Z"/></g>
<g><path style="opacity:1" fill="#6ad8c3" d="M 550.5,222.5 C 560.331,229.156 560.998,236.656 552.5,245C 544.011,248.251 538.011,245.751 534.5,237.5C 534.368,234.43 534.701,231.43 535.5,228.5C 539.199,223.491 544.199,221.491 550.5,222.5 Z"/></g>
<g><path style="opacity:1" fill="#c9c8d1" d="M 303.5,215.5 C 303.5,216.5 303.5,217.5 303.5,218.5C 304.5,218.5 305.5,218.5 306.5,218.5C 306.281,217.325 306.614,216.325 307.5,215.5C 308.107,215.624 308.44,215.957 308.5,216.5C 307.833,217.5 307.167,218.5 306.5,219.5C 304.259,220.3 303.259,221.966 303.5,224.5C 304.552,224.649 305.552,224.483 306.5,224C 306.884,223.049 307.217,222.216 307.5,221.5C 308.496,221.414 309.329,221.748 310,222.5C 310.663,220.137 311.163,217.637 311.5,215C 317.647,214.298 318.647,215.965 314.5,220C 318.632,222.767 318.132,224.6 313,225.5C 311.289,225.561 309.956,224.894 309,223.5C 306.415,226.128 303.915,226.128 301.5,223.5C 302.833,221.5 302.833,219.5 301.5,217.5C 301.855,216.478 302.522,215.811 303.5,215.5 Z"/></g>
<g><path style="opacity:1" fill="#9493a5" d="M 306.5,219.5 C 306.833,220.167 307.167,220.833 307.5,221.5C 307.217,222.216 306.884,223.049 306.5,224C 305.552,224.483 304.552,224.649 303.5,224.5C 303.259,221.966 304.259,220.3 306.5,219.5 Z"/></g>
<g><path style="opacity:1" fill="#d78876" d="M 262.5,241.5 C 261.99,244.674 260.323,247.008 257.5,248.5C 258.259,246.564 259.259,244.731 260.5,243C 260.167,242.5 259.833,242 259.5,241.5C 252.79,245.509 247.457,250.842 243.5,257.5C 244.7,258.292 246.033,258.292 247.5,257.5C 246.564,258.974 245.23,259.974 243.5,260.5C 240.598,257.173 239.931,253.506 241.5,249.5C 241.34,251.199 241.506,252.866 242,254.5C 246.21,248.622 251.377,243.789 257.5,240C 254.493,239.699 251.493,239.865 248.5,240.5C 253.378,237.624 258.045,237.958 262.5,241.5 Z"/></g>
<g><path style="opacity:1" fill="#763a48" d="M 257.5,248.5 C 256.262,247.588 254.928,247.421 253.5,248C 252,249.5 250.5,251 249,252.5C 248.383,253.449 248.549,254.282 249.5,255C 248.619,255.708 247.953,256.542 247.5,257.5C 246.033,258.292 244.7,258.292 243.5,257.5C 247.457,250.842 252.79,245.509 259.5,241.5C 259.833,242 260.167,242.5 260.5,243C 259.259,244.731 258.259,246.564 257.5,248.5 Z"/></g>
<g><path style="opacity:1" fill="#f77d9e" d="M 262.5,241.5 C 270.5,248.833 270.5,256.167 262.5,263.5C 262.634,261.708 262.301,260.042 261.5,258.5C 261.737,257.209 261.404,256.209 260.5,255.5C 259.227,253.287 258.227,250.954 257.5,248.5C 260.323,247.008 261.99,244.674 262.5,241.5 Z"/></g>
<g><path style="opacity:1" fill="#f3b07e" d="M 241.5,249.5 C 241.979,245.025 244.312,242.025 248.5,240.5C 251.493,239.865 254.493,239.699 257.5,240C 251.377,243.789 246.21,248.622 242,254.5C 241.506,252.866 241.34,251.199 241.5,249.5 Z"/></g>
<g><path style="opacity:1" fill="#f5ab81" d="M 257.5,248.5 C 258.227,250.954 259.227,253.287 260.5,255.5C 249.998,259.67 250.331,260.67 261.5,258.5C 262.301,260.042 262.634,261.708 262.5,263.5C 262.158,264.338 261.492,264.672 260.5,264.5C 257.833,264.167 255.167,263.833 252.5,263.5C 252.313,261.436 251.813,259.436 251,257.5C 250.014,256.829 248.847,256.829 247.5,257.5C 247.953,256.542 248.619,255.708 249.5,255C 248.549,254.282 248.383,253.449 249,252.5C 250.5,251 252,249.5 253.5,248C 254.928,247.421 256.262,247.588 257.5,248.5 Z"/></g>
<g><path style="opacity:0.882" fill="#ffa7d2" d="M 18.5,249.5 C 19.5862,249.62 20.2528,250.287 20.5,251.5C 20.7096,257.253 23.043,261.919 27.5,265.5C 26.1851,267.316 24.6851,268.983 23,270.5C 21.8963,274.184 20.7296,277.85 19.5,281.5C 18.4522,275.404 15.7856,270.071 11.5,265.5C 16.0133,261.138 18.3467,255.805 18.5,249.5 Z"/></g>
<g><path style="opacity:1" fill="#cacace" d="M 279.5,247.5 C 286.569,247.743 286.903,248.577 280.5,250C 278.266,254.949 279.933,257.449 285.5,257.5C 278.525,259.356 276.025,256.689 278,249.5C 278.717,248.956 279.217,248.289 279.5,247.5 Z"/></g>
<g><path style="opacity:1" fill="#babbc1" d="M 287.5,250.5 C 289.467,250.261 291.301,250.594 293,251.5C 293.497,253.81 293.663,256.143 293.5,258.5C 291.208,258.756 289.041,258.423 287,257.5C 287.031,254.799 288.531,253.299 291.5,253C 289.563,252.878 288.23,252.045 287.5,250.5 Z"/></g>
<g><path style="opacity:1" fill="#c6c6ca" d="M 295.5,250.5 C 301.89,249.218 303.89,251.551 301.5,257.5C 300.311,258.429 298.978,258.762 297.5,258.5C 297.719,259.675 297.386,260.675 296.5,261.5C 295.511,257.893 295.177,254.226 295.5,250.5 Z"/></g>
<g><path style="opacity:1" fill="#34324a" d="M 297.5,252.5 C 298.5,252.5 299.5,252.5 300.5,252.5C 300.5,253.833 300.5,255.167 300.5,256.5C 299.5,256.5 298.5,256.5 297.5,256.5C 297.5,255.167 297.5,253.833 297.5,252.5 Z"/></g>
<g><path style="opacity:1" fill="#6f3541" d="M 260.5,255.5 C 261.404,256.209 261.737,257.209 261.5,258.5C 250.331,260.67 249.998,259.67 260.5,255.5 Z"/></g>
<g><path style="opacity:1" fill="#8a99a5" d="M 466.5,260.5 C 468.857,260.337 471.19,260.503 473.5,261C 475.405,261.826 475.739,262.993 474.5,264.5C 471.054,262.821 468.221,263.488 466,266.5C 463.497,273.814 465.997,277.147 473.5,276.5C 473.5,275.167 473.5,273.833 473.5,272.5C 470.5,272.833 469.167,271.5 469.5,268.5C 472.167,268.5 474.833,268.5 477.5,268.5C 477.5,271.833 477.5,275.167 477.5,278.5C 466.01,282.201 460.843,278.201 462,266.5C 463.332,264.34 464.832,262.34 466.5,260.5 Z"/></g>
<g><path style="opacity:1" fill="#82909c" d="M 532.5,259.5 C 533.5,259.5 534.5,259.5 535.5,259.5C 535.5,266.167 535.5,272.833 535.5,279.5C 534.167,279.5 532.833,279.5 531.5,279.5C 531.207,272.745 531.54,266.078 532.5,259.5 Z"/></g>
<g><path style="opacity:1" fill="#ed6b80" d="M 260.5,264.5 C 253.782,267.964 248.115,266.631 243.5,260.5C 245.23,259.974 246.564,258.974 247.5,257.5C 248.847,256.829 250.014,256.829 251,257.5C 251.813,259.436 252.313,261.436 252.5,263.5C 255.167,263.833 257.833,264.167 260.5,264.5 Z"/></g>
<g><path style="opacity:1" fill="#95a6b1" d="M 480.5,266.5 C 482.124,266.36 483.29,267.027 484,268.5C 485.11,266.963 486.61,266.297 488.5,266.5C 488.17,269.109 486.67,270.776 484,271.5C 483.503,274.146 483.336,276.813 483.5,279.5C 482.5,279.5 481.5,279.5 480.5,279.5C 480.5,275.167 480.5,270.833 480.5,266.5 Z"/></g>
<g><path style="opacity:1" fill="#91a1ac" d="M 490.5,266.5 C 494.007,265.994 497.174,266.66 500,268.5C 500.499,272.152 500.665,275.818 500.5,279.5C 497.004,279.23 493.504,278.896 490,278.5C 488.847,273.295 491.013,270.962 496.5,271.5C 496.5,270.5 496.5,269.5 496.5,268.5C 494.738,268.357 493.071,268.691 491.5,269.5C 490.614,268.675 490.281,267.675 490.5,266.5 Z"/></g>
<g><path style="opacity:1" fill="#8b9aa5" d="M 540.5,266.5 C 546.771,264.797 549.771,267.131 549.5,273.5C 546.833,273.5 544.167,273.5 541.5,273.5C 541.5,274.5 541.5,275.5 541.5,276.5C 544.119,276.768 546.619,276.435 549,275.5C 549.649,278.918 548.149,280.251 544.5,279.5C 540.117,279.619 537.784,277.453 537.5,273C 537.84,270.489 538.84,268.322 540.5,266.5 Z"/></g>
<g><path style="opacity:1" fill="#8c9ca7" d="M 505.5,266.5 C 508.898,266.18 512.232,266.513 515.5,267.5C 513.97,269.226 512.97,271.226 512.5,273.5C 511.088,274.806 509.421,275.64 507.5,276C 510.234,276.21 512.734,277.044 515,278.5C 515.561,281.298 514.394,283.131 511.5,284C 503.56,285.602 501.226,282.935 504.5,276C 502.834,272.53 503.168,269.363 505.5,266.5 Z"/></g>
<g><path style="opacity:1" fill="#272735" d="M 506.5,268.5 C 507.833,268.5 509.167,268.5 510.5,268.5C 510.884,270.665 510.217,272.332 508.5,273.5C 506.783,272.332 506.116,270.665 506.5,268.5 Z"/></g>
<g><path style="opacity:1" fill="#252634" d="M 542.5,268.5 C 544.346,268.222 545.68,268.889 546.5,270.5C 544.833,271.833 543.167,271.833 541.5,270.5C 541.863,269.817 542.196,269.15 542.5,268.5 Z"/></g>
<g><path style="opacity:1" fill="#2a2b39" d="M 493.5,273.5 C 494.833,273.5 496.167,273.5 497.5,273.5C 497.55,275.59 496.55,276.923 494.5,277.5C 492.358,276.563 492.024,275.23 493.5,273.5 Z"/></g>
<g><path style="opacity:1" fill="#8c9ba6" d="M 519.5,266.5 C 522.898,266.18 526.232,266.513 529.5,267.5C 528.045,269.22 527.212,271.22 527,273.5C 525.352,274.717 523.519,275.55 521.5,276C 524.234,276.21 526.734,277.044 529,278.5C 529.561,281.298 528.394,283.131 525.5,284C 517.56,285.602 515.226,282.935 518.5,276C 516.834,272.53 517.168,269.363 519.5,266.5 Z"/></g>
<g><path style="opacity:1" fill="#262634" d="M 520.5,268.5 C 521.833,268.5 523.167,268.5 524.5,268.5C 524.884,270.665 524.217,272.332 522.5,273.5C 520.783,272.332 520.116,270.665 520.5,268.5 Z"/></g>
<g><path style="opacity:0.959" fill="#fad450" d="M 72.5,301.5 C 73.0798,303.749 74.4131,305.415 76.5,306.5C 76.3284,307.492 76.6618,308.158 77.5,308.5C 79.6458,314.11 78.6458,318.944 74.5,323C 71.6967,323.755 69.0301,323.422 66.5,322C 64.2659,319.937 62.2659,317.771 60.5,315.5C 60.5,315.167 60.5,314.833 60.5,314.5C 59.9736,310.688 59.3069,307.021 58.5,303.5C 51.8686,297.77 50.0353,290.77 53,282.5C 60.1446,278.204 65.8113,279.87 70,287.5C 71.0307,292.168 71.864,296.834 72.5,301.5 Z"/></g>
<g><path style="opacity:1" fill="#252633" d="M 505.5,279.5 C 507.924,279.192 510.257,279.526 512.5,280.5C 512.291,281.086 511.957,281.586 511.5,282C 509.527,282.495 507.527,282.662 505.5,282.5C 505.5,281.5 505.5,280.5 505.5,279.5 Z"/></g>
<g><path style="opacity:1" fill="#252533" d="M 519.5,279.5 C 521.924,279.192 524.257,279.526 526.5,280.5C 526.291,281.086 525.957,281.586 525.5,282C 523.527,282.495 521.527,282.662 519.5,282.5C 519.5,281.5 519.5,280.5 519.5,279.5 Z"/></g>
<g><path style="opacity:0.986" fill="#8bd7fd" d="M 215.5,286.5 C 219.688,290.493 223.188,295.16 226,300.5C 229.855,314.431 226.355,326.098 215.5,335.5C 214.833,335.833 214.167,336.167 213.5,336.5C 201.68,330.119 189.014,326.785 175.5,326.5C 168.029,310.887 171.029,297.721 184.5,287C 194.749,281.175 205.082,281.009 215.5,286.5 Z"/></g>
<g><path style="opacity:0.918" fill="#f9d34f" d="M 100.5,311.5 C 99.0256,310.564 98.0256,309.23 97.5,307.5C 98.9342,304.302 99.4342,300.968 99,297.5C 95.1388,296.396 93.3054,298.063 93.5,302.5C 91.4548,300.016 88.7882,299.016 85.5,299.5C 85.7748,289.043 90.7748,285.543 100.5,289C 104.469,295.35 104.136,301.516 99.5,307.5C 99.8457,308.849 100.179,310.183 100.5,311.5 Z"/></g>
<g><path style="opacity:1" fill="#0f0c04" d="M 63.5,290.5 C 66.091,291.254 67.9243,292.921 69,295.5C 69.6294,301.088 71.1294,306.421 73.5,311.5C 72.1976,316.656 70.3643,316.656 68,311.5C 67.0831,306.246 65.4164,301.246 63,296.5C 62.3224,294.402 62.4891,292.402 63.5,290.5 Z"/></g>
<g><path style="opacity:1" fill="#0e0e06" d="M 97.5,307.5 C 95.457,306.421 94.1237,304.754 93.5,302.5C 93.3054,298.063 95.1388,296.396 99,297.5C 99.4342,300.968 98.9342,304.302 97.5,307.5 Z"/></g>
<g><path style="opacity:1" fill="#0e1316" d="M 186.5,297.5 C 192.19,296.726 195.024,299.059 195,304.5C 194.667,304.833 194.333,305.167 194,305.5C 192.666,301.896 190.166,300.729 186.5,302C 183.098,303.4 180.264,305.567 178,308.5C 177.48,306.711 177.813,305.044 179,303.5C 181.114,300.879 183.614,298.879 186.5,297.5 Z"/></g>
<g><path style="opacity:1" fill="#cf8781" d="M 297.5,298.5 C 298.5,298.5 299.5,298.5 300.5,298.5C 300.5,303.167 300.5,307.833 300.5,312.5C 299.5,312.5 298.5,312.5 297.5,312.5C 297.5,307.833 297.5,303.167 297.5,298.5 Z"/></g>
<g><path style="opacity:1" fill="#d98d85" d="M 310.5,298.5 C 312.977,298.051 314.977,298.717 316.5,300.5C 315.091,300.654 313.424,300.821 311.5,301C 308.833,304 308.833,307 311.5,310C 313.235,310.651 314.902,310.485 316.5,309.5C 317.711,310.274 317.711,311.107 316.5,312C 308.72,313.553 305.553,310.386 307,302.5C 308.032,300.973 309.199,299.64 310.5,298.5 Z"/></g>
<g><path style="opacity:1" fill="#d58a84" d="M 245.5,298.5 C 246.833,298.5 248.167,298.5 249.5,298.5C 250.722,302.668 252.056,306.835 253.5,311C 253.167,311.5 252.833,312 252.5,312.5C 249.094,308.519 245.761,308.519 242.5,312.5C 242.167,312 241.833,311.5 241.5,311C 242.944,306.835 244.278,302.668 245.5,298.5 Z"/></g>
<g><path style="opacity:1" fill="#d58a83" d="M 266.5,298.5 C 268.465,298.948 268.798,299.948 267.5,301.5C 266.614,300.675 266.281,299.675 266.5,298.5 Z"/></g>
<g><path style="opacity:1" fill="#17af75" d="M 38.5,307.5 C 40.1312,312.1 41.1312,317.1 41.5,322.5C 47.52,318.987 53.8533,316.32 60.5,314.5C 60.5,314.833 60.5,315.167 60.5,315.5C 54.7511,318.878 48.7511,322.044 42.5,325C 56.7403,331.038 70.9069,337.204 85,343.5C 86.1366,332.197 86.9699,320.863 87.5,309.5C 87.1667,307.833 86.8333,306.167 86.5,304.5C 83.5918,306.122 80.5918,307.456 77.5,308.5C 76.6618,308.158 76.3284,307.492 76.5,306.5C 80.4081,304.546 84.4081,302.546 88.5,300.5C 89.6043,314.831 89.6043,329.165 88.5,343.5C 97.8452,342.689 107.178,341.689 116.5,340.5C 118.167,340.833 119.833,341.167 121.5,341.5C 110.49,343.612 99.4903,345.612 88.5,347.5C 93.8483,360.877 98.1816,374.543 101.5,388.5C 83.8966,386.28 66.3966,383.613 49,380.5C 50.0316,385.115 51.1983,389.782 52.5,394.5C 51.5,394.5 50.5,394.5 49.5,394.5C 48.5318,388.891 46.6985,383.558 44,378.5C 35.4877,371.321 27.6543,363.488 20.5,355C 25.9833,344.843 31.4833,334.677 37,324.5C 37.4455,318.82 37.9455,313.154 38.5,307.5 Z"/></g>
<g><path style="opacity:0.971" fill="#29cb79" d="M 58.5,303.5 C 59.3069,307.021 59.9736,310.688 60.5,314.5C 53.8533,316.32 47.52,318.987 41.5,322.5C 41.1312,317.1 40.1312,312.1 38.5,307.5C 38.6107,306.883 38.944,306.383 39.5,306C 45.8237,305.025 52.157,304.192 58.5,303.5 Z"/></g>
<g><path style="opacity:1" fill="#d98c85" d="M 255.5,302.5 C 258.013,302.974 260.513,303.307 263,303.5C 263.821,306.554 263.655,309.554 262.5,312.5C 261.526,310.257 261.192,307.924 261.5,305.5C 260.5,305.5 259.5,305.5 258.5,305.5C 258.5,307.833 258.5,310.167 258.5,312.5C 257.5,312.5 256.5,312.5 255.5,312.5C 255.5,309.167 255.5,305.833 255.5,302.5 Z"/></g>
<g><path style="opacity:1" fill="#e6948a" d="M 266.5,302.5 C 267.777,303.694 268.444,305.36 268.5,307.5C 268.167,309.167 267.833,310.833 267.5,312.5C 266.513,309.232 266.18,305.898 266.5,302.5 Z"/></g>
<g><path style="opacity:1" fill="#d48a83" d="M 271.5,302.5 C 275.745,302.794 280.078,302.96 284.5,303C 285.451,306.057 285.784,309.223 285.5,312.5C 284.5,312.5 283.5,312.5 282.5,312.5C 282.813,309.753 282.48,307.086 281.5,304.5C 280.914,304.709 280.414,305.043 280,305.5C 279.503,307.81 279.337,310.143 279.5,312.5C 278.5,312.5 277.5,312.5 276.5,312.5C 275.952,302.094 274.619,302.094 272.5,312.5C 271.513,309.232 271.18,305.898 271.5,302.5 Z"/></g>
<g><path style="opacity:1" fill="#e39289" d="M 319.5,302.5 C 320.75,302.577 321.583,303.244 322,304.5C 323.065,302.604 323.898,302.437 324.5,304C 323.991,305.169 323.158,306.002 322,306.5C 321.808,308.577 321.308,310.577 320.5,312.5C 319.513,309.232 319.18,305.898 319.5,302.5 Z"/></g>
<g><path style="opacity:1" fill="#d48a83" d="M 338.5,302.5 C 344.261,302.87 344.594,303.87 339.5,305.5C 343.273,306.449 344.273,308.616 342.5,312C 340.421,312.808 338.421,312.641 336.5,311.5C 338.167,310.833 339.833,310.167 341.5,309.5C 339.217,308.865 337.551,307.532 336.5,305.5C 336.942,304.261 337.609,303.261 338.5,302.5 Z"/></g>
<g><path style="opacity:1" fill="#d48a83" d="M 347.5,302.5 C 353.261,302.87 353.594,303.87 348.5,305.5C 352.273,306.449 353.273,308.616 351.5,312C 349.421,312.808 347.421,312.641 345.5,311.5C 347.167,310.833 348.833,310.167 350.5,309.5C 348.217,308.865 346.551,307.532 345.5,305.5C 345.942,304.261 346.609,303.261 347.5,302.5 Z"/></g>
<g><path style="opacity:1" fill="#ec988c" d="M 355.5,303.5 C 356.765,304.514 357.431,306.014 357.5,308C 357.167,309.5 356.833,311 356.5,312.5C 355.516,309.572 355.183,306.572 355.5,303.5 Z"/></g>
<g><path style="opacity:1" fill="#c7827e" d="M 359.5,302.5 C 362.277,302.786 365.111,303.12 368,303.5C 368.498,306.482 368.665,309.482 368.5,312.5C 367.5,312.5 366.5,312.5 365.5,312.5C 365.813,309.753 365.48,307.086 364.5,304.5C 363.914,304.709 363.414,305.043 363,305.5C 362.503,307.81 362.337,310.143 362.5,312.5C 361.5,312.5 360.5,312.5 359.5,312.5C 359.5,309.167 359.5,305.833 359.5,302.5 Z"/></g>
<g><path style="opacity:1" fill="#45374c" d="M 246.5,302.5 C 248.176,303.183 248.843,304.517 248.5,306.5C 247.448,306.649 246.448,306.483 245.5,306C 246.337,304.989 246.67,303.822 246.5,302.5 Z"/></g>
<g><path style="opacity:1" fill="#dc8e86" d="M 328.5,302.5 C 333.989,302.504 335.822,305.171 334,310.5C 328.08,314.174 325.414,312.507 326,305.5C 327.045,304.627 327.878,303.627 328.5,302.5 Z"/></g>
<g><path style="opacity:1" fill="#2bcb79" d="M 60.5,315.5 C 62.2659,317.771 64.2659,319.937 66.5,322C 69.0301,323.422 71.6967,323.755 74.5,323C 78.6458,318.944 79.6458,314.11 77.5,308.5C 80.5918,307.456 83.5918,306.122 86.5,304.5C 86.8333,306.167 87.1667,307.833 87.5,309.5C 86.9699,320.863 86.1366,332.197 85,343.5C 70.9069,337.204 56.7403,331.038 42.5,325C 48.7511,322.044 54.7511,318.878 60.5,315.5 Z"/></g>
<g><path style="opacity:1" fill="#352e45" d="M 329.5,304.5 C 332.513,305.356 333.18,307.189 331.5,310C 330.552,310.483 329.552,310.649 328.5,310.5C 328.325,308.379 328.659,306.379 329.5,304.5 Z"/></g>
<g><path style="opacity:1" fill="#ba7a79" d="M 288.5,302.5 C 291.044,302.104 293.211,302.771 295,304.5C 295.497,307.146 295.664,309.813 295.5,312.5C 292.833,312.5 290.167,312.5 287.5,312.5C 286.991,308.6 288.658,306.267 292.5,305.5C 290.922,304.702 289.256,304.202 287.5,304C 288.056,303.617 288.389,303.117 288.5,302.5 Z"/></g>
<g><path style="opacity:1" fill="#cf8781" d="M 372.5,302.5 C 381.134,303.479 381.467,305.979 373.5,310C 376.008,310.115 378.008,311.115 379.5,313C 377.723,316.101 375.057,317.101 371.5,316C 370.643,315.311 369.977,314.478 369.5,313.5C 370.335,309.805 371.335,306.139 372.5,302.5 Z"/></g>
<g><path style="opacity:1" fill="#2d2a42" d="M 372.5,312.5 C 373.978,312.238 375.311,312.571 376.5,313.5C 375.833,313.833 375.167,314.167 374.5,314.5C 373.287,314.253 372.62,313.586 372.5,312.5 Z"/></g>
<g><path style="opacity:1" fill="#332d44" d="M 372.5,304.5 C 373.5,304.5 374.5,304.5 375.5,304.5C 375.5,305.5 375.5,306.5 375.5,307.5C 374.5,307.5 373.5,307.5 372.5,307.5C 372.5,306.5 372.5,305.5 372.5,304.5 Z"/></g>
<g><path style="opacity:1" fill="#a0a2a9" d="M 414.5,323.5 C 419.894,322.554 421.561,324.554 419.5,329.5C 420.04,330.748 420.707,331.915 421.5,333C 419.232,333.09 417.732,331.923 417,329.5C 416.781,330.938 416.281,332.271 415.5,333.5C 414.513,330.232 414.18,326.898 414.5,323.5 Z"/></g>
<g><path style="opacity:1" fill="#a4a6ac" d="M 429.5,323.5 C 430.777,324.694 431.444,326.36 431.5,328.5C 431.167,330.167 430.833,331.833 430.5,333.5C 429.513,330.232 429.18,326.898 429.5,323.5 Z"/></g>
<g><path style="opacity:0.982" fill="#b3e3ff" d="M 175.5,326.5 C 189.014,326.785 201.68,330.119 213.5,336.5C 213.842,337.338 214.508,337.672 215.5,337.5C 215.5,339.833 215.5,342.167 215.5,344.5C 214.5,344.833 213.833,345.5 213.5,346.5C 200.622,337.322 186.289,333.655 170.5,335.5C 169.237,330.597 170.903,327.597 175.5,326.5 Z"/></g>
<g><path style="opacity:1" fill="#82838e" d="M 423.5,326.5 C 427.976,326.8 429.31,328.967 427.5,333C 422.57,333.427 421.237,331.26 423.5,326.5 Z"/></g>
<g><path style="opacity:1" fill="#999aa2" d="M 434.5,326.5 C 437.5,326.167 438.833,327.5 438.5,330.5C 437.127,330.343 435.793,330.51 434.5,331C 435.841,332.295 437.174,332.795 438.5,332.5C 437.277,333.614 435.944,333.781 434.5,333C 433.232,330.837 433.232,328.67 434.5,326.5 Z"/></g>
<g><path style="opacity:1" fill="#f4b168" d="M 263.5,355.5 C 263.5,354.833 263.167,354.5 262.5,354.5C 263.018,353.423 263.352,352.256 263.5,351C 262.058,346.978 261.225,342.811 261,338.5C 260.292,337.619 259.458,336.953 258.5,336.5C 256.958,335.699 255.292,335.366 253.5,335.5C 253.5,334.167 253.5,332.833 253.5,331.5C 266.743,333.65 270.909,340.984 266,353.5C 265.292,354.381 264.458,355.047 263.5,355.5 Z"/></g>
<g><path style="opacity:1" fill="#9fa0a7" d="M 440.5,326.5 C 441.978,326.238 443.311,326.571 444.5,327.5C 443.975,328.192 443.308,328.692 442.5,329C 446.449,330.687 446.449,332.187 442.5,333.5C 441.833,333.333 441.167,333.167 440.5,333C 444.456,331.886 444.456,331.053 440.5,330.5C 440.5,329.167 440.5,327.833 440.5,326.5 Z"/></g>
<g><path style="opacity:0.964" fill="#7cc6ff" d="M 213.5,346.5 C 213.833,347.5 214.5,348.167 215.5,348.5C 215.5,351.167 215.5,353.833 215.5,356.5C 212.994,357.75 210.327,358.416 207.5,358.5C 209.406,355.052 208.739,352.219 205.5,350C 195.172,344.331 184.172,341.998 172.5,343C 171.131,344.719 170.131,346.552 169.5,348.5C 162.674,343.638 163.007,339.304 170.5,335.5C 186.289,333.655 200.622,337.322 213.5,346.5 Z"/></g>
<g><path style="opacity:1" fill="#587adf" d="M 258.5,336.5 C 259.458,336.953 260.292,337.619 261,338.5C 261.225,342.811 262.058,346.978 263.5,351C 263.352,352.256 263.018,353.423 262.5,354.5C 259.993,357.036 256.993,357.869 253.5,357C 250.856,354.227 248.856,351.06 247.5,347.5C 246.939,344.538 245.939,341.705 244.5,339C 244.667,338.5 244.833,338 245,337.5C 246,338.5 247,339.5 248,340.5C 248.464,339.906 248.631,339.239 248.5,338.5C 249.531,339.355 250.697,340.022 252,340.5C 253.966,338.771 256.132,337.437 258.5,336.5 Z"/></g>
<g><path style="opacity:1" fill="#f4b169" d="M 248.5,338.5 C 248.631,339.239 248.464,339.906 248,340.5C 247,339.5 246,338.5 245,337.5C 244.833,338 244.667,338.5 244.5,339C 245.939,341.705 246.939,344.538 247.5,347.5C 245.5,348.167 243.5,348.833 241.5,349.5C 239.548,341.735 242.215,336.068 249.5,332.5C 250.287,333.242 250.953,334.075 251.5,335C 250.29,336.039 249.29,337.206 248.5,338.5 Z"/></g>
<g><path style="opacity:1" fill="#c9cace" d="M 318.5,338.5 C 319.787,339.871 320.453,341.705 320.5,344C 320.167,345.833 319.833,347.667 319.5,349.5C 318.511,345.893 318.177,342.226 318.5,338.5 Z"/></g>
<g><path style="opacity:1" fill="#c9cace" d="M 279.5,338.5 C 287.196,338.771 287.363,339.771 280,341.5C 278.416,346.362 279.916,348.028 284.5,346.5C 282.076,344.286 282.743,343.286 286.5,343.5C 287.247,349.067 284.913,350.9 279.5,349C 276.88,345.502 276.88,342.002 279.5,338.5 Z"/></g>
<g><path style="opacity:0.99" fill="#b2e0fd" d="M 207.5,358.5 C 207.5,359.5 207.5,360.5 207.5,361.5C 205.55,367.237 204.217,373.237 203.5,379.5C 199.628,377.065 195.628,374.898 191.5,373C 189.787,371.622 188.453,369.955 187.5,368C 186.552,367.517 185.552,367.351 184.5,367.5C 184.5,368.833 184.5,370.167 184.5,371.5C 177.755,371.264 174.922,374.598 176,381.5C 184.711,383.431 192.877,386.931 200.5,392C 202.063,392.759 203.063,393.926 203.5,395.5C 204.094,402.175 204.76,408.842 205.5,415.5C 186.548,403.97 165.882,398.637 143.5,399.5C 147.221,395.112 150.555,390.445 153.5,385.5C 154.837,384.685 155.837,383.518 156.5,382C 158.98,381.04 161.48,380.207 164,379.5C 164.931,377.541 165.764,375.541 166.5,373.5C 164.709,372.83 163.042,372.163 161.5,371.5C 164.561,363.984 167.228,356.317 169.5,348.5C 170.131,346.552 171.131,344.719 172.5,343C 184.172,341.998 195.172,344.331 205.5,350C 208.739,352.219 209.406,355.052 207.5,358.5 Z"/></g>
<g><path style="opacity:1" fill="#babbc1" d="M 288.5,341.5 C 290.225,342.278 291.891,342.611 293.5,342.5C 291.205,344.2 289.872,346.534 289.5,349.5C 288.52,346.914 288.187,344.247 288.5,341.5 Z"/></g>
<g><path style="opacity:1" fill="#b1b1b9" d="M 294.5,341.5 C 300.367,341.206 302.033,343.872 299.5,349.5C 297.722,349.431 295.889,349.097 294,348.5C 294.031,345.799 295.531,344.299 298.5,344C 296.563,343.878 295.23,343.045 294.5,341.5 Z"/></g>
<g><path style="opacity:1" fill="#becbea" d="M 256.5,342.5 C 257.5,342.5 258.5,342.5 259.5,342.5C 259.5,343.5 259.5,344.5 259.5,345.5C 258.5,345.5 257.5,345.5 256.5,345.5C 256.5,344.5 256.5,343.5 256.5,342.5 Z"/></g>
<g><path style="opacity:1" fill="#59586b" d="M 310.5,343.5 C 311.608,345.695 311.441,347.695 310,349.5C 308.951,348.483 307.784,348.316 306.5,349C 307.833,349.667 307.833,350.333 306.5,351C 305.552,351.483 304.552,351.649 303.5,351.5C 303.197,348.412 304.53,346.746 307.5,346.5C 307.33,345.178 307.663,344.011 308.5,343C 306.939,342.812 306.272,343.645 306.5,345.5C 305.5,345.5 304.5,345.5 303.5,345.5C 303.5,344.5 303.5,343.5 303.5,342.5C 306.007,341.102 308.34,341.436 310.5,343.5 Z"/></g>
<g><path style="opacity:1" fill="#534153" d="M 421.5,345.5 C 462.501,345.333 503.501,345.5 544.5,346C 552.152,349.803 554.319,355.636 551,363.5C 549.127,365.709 546.96,367.542 544.5,369C 503.5,369.667 462.5,369.667 421.5,369C 410.875,361.168 410.875,353.335 421.5,345.5 Z"/></g>
<g><path style="opacity:1" fill="#b0b1b8" d="M 323.5,341.5 C 327.349,341.019 329.349,342.686 329.5,346.5C 322.866,346.677 322.866,347.177 329.5,348C 322.759,350.756 320.759,348.59 323.5,341.5 Z"/></g>
<g><path style="opacity:1" fill="#e97168" d="M 247.5,347.5 C 248.856,351.06 250.856,354.227 253.5,357C 256.993,357.869 259.993,357.036 262.5,354.5C 263.167,354.5 263.5,354.833 263.5,355.5C 256.178,361.292 249.344,360.625 243,353.5C 242.209,352.255 241.709,350.922 241.5,349.5C 243.5,348.833 245.5,348.167 247.5,347.5 Z"/></g>
<g><path style="opacity:1" fill="#7c4e80" d="M 253.5,348.5 C 255.777,347.629 258.11,347.962 260.5,349.5C 260.113,350.72 259.28,351.387 258,351.5C 256.06,351.043 254.56,350.043 253.5,348.5 Z"/></g>
<g><path style="opacity:1" fill="#e6948a" d="M 422.5,349.5 C 430.658,348.823 434.158,352.49 433,360.5C 430.774,364.861 427.274,366.361 422.5,365C 418.139,362.774 416.639,359.274 418,354.5C 419.025,352.313 420.525,350.646 422.5,349.5 Z"/></g>
<g><path style="opacity:1" fill="#adadb5" d="M 303.5,342.5 C 303.5,343.5 303.5,344.5 303.5,345.5C 304.5,345.5 305.5,345.5 306.5,345.5C 306.272,343.645 306.939,342.812 308.5,343C 307.663,344.011 307.33,345.178 307.5,346.5C 304.53,346.746 303.197,348.412 303.5,351.5C 304.552,351.649 305.552,351.483 306.5,351C 307.833,350.333 307.833,349.667 306.5,349C 307.784,348.316 308.951,348.483 310,349.5C 311.441,347.695 311.608,345.695 310.5,343.5C 310.866,342.305 311.699,341.639 313,341.5C 318.358,341.85 318.858,343.683 314.5,347C 317.816,348.251 318.15,349.918 315.5,352C 312.975,352.896 310.808,352.396 309,350.5C 306.415,353.128 303.915,353.128 301.5,350.5C 302.833,348.5 302.833,346.5 301.5,344.5C 301.855,343.478 302.522,342.811 303.5,342.5 Z"/></g>
<g><path style="opacity:1" fill="#e0dde0" d="M 481.5,352.5 C 482.777,353.694 483.444,355.36 483.5,357.5C 483.167,359.167 482.833,360.833 482.5,362.5C 481.513,359.232 481.18,355.898 481.5,352.5 Z"/></g>
<g><path style="opacity:1" fill="#dcd8dc" d="M 445.5,352.5 C 446.496,352.414 447.329,352.748 448,353.5C 449.523,356.491 450.023,359.491 449.5,362.5C 448.672,361.585 447.672,360.919 446.5,360.5C 444.845,361.388 443.178,361.888 441.5,362C 442.977,358.88 444.311,355.714 445.5,352.5 Z"/></g>
<g><path style="opacity:1" fill="#e3e0e3" d="M 490.5,352.5 C 495.797,353.032 495.797,353.866 490.5,355C 488.697,359.547 490.363,361.547 495.5,361C 489.702,363.879 487.202,362.045 488,355.5C 489.045,354.627 489.878,353.627 490.5,352.5 Z"/></g>
<g><path style="opacity:1" fill="#c6c0c6" d="M 502.5,355.5 C 507.328,355.385 508.661,357.552 506.5,362C 501.57,362.427 500.237,360.26 502.5,355.5 Z"/></g>
<g><path style="opacity:1" fill="#f3f2f3" d="M 452.5,355.5 C 453.973,356.071 455.64,356.071 457.5,355.5C 457.663,357.857 457.497,360.19 457,362.5C 456.506,360.866 456.34,359.199 456.5,357.5C 455.5,357.5 454.5,357.5 453.5,357.5C 453.66,359.199 453.494,360.866 453,362.5C 452.503,360.19 452.337,357.857 452.5,355.5 Z"/></g>
<g><path style="opacity:1" fill="#dddadd" d="M 459.5,355.5 C 460.725,356.152 461.392,357.319 461.5,359C 461.167,360.167 460.833,361.333 460.5,362.5C 459.526,360.257 459.192,357.924 459.5,355.5 Z"/></g>
<g><path style="opacity:1" fill="#eeedee" d="M 463.5,355.5 C 466.426,355.895 469.426,355.895 472.5,355.5C 472.663,357.857 472.497,360.19 472,362.5C 471.506,360.866 471.34,359.199 471.5,357.5C 470.5,357.5 469.5,357.5 468.5,357.5C 468.167,364.167 467.833,364.167 467.5,357.5C 466.5,357.5 465.5,357.5 464.5,357.5C 464.66,359.199 464.494,360.866 464,362.5C 463.503,360.19 463.337,357.857 463.5,355.5 Z"/></g>
<g><path style="opacity:1" fill="#e3e0e3" d="M 496.5,355.5 C 497.975,356.262 499.309,356.595 500.5,356.5C 499.205,358.328 498.205,360.328 497.5,362.5C 496.526,360.257 496.192,357.924 496.5,355.5 Z"/></g>
<g><path style="opacity:1" fill="#dedade" d="M 521.5,355.5 C 522.725,356.152 523.392,357.319 523.5,359C 523.167,360.167 522.833,361.333 522.5,362.5C 521.526,360.257 521.192,357.924 521.5,355.5 Z"/></g>
<g><path style="opacity:1" fill="#f3f1f3" d="M 525.5,355.5 C 526.973,356.071 528.64,356.071 530.5,355.5C 530.663,357.857 530.497,360.19 530,362.5C 529.506,360.866 529.34,359.199 529.5,357.5C 528.5,357.5 527.5,357.5 526.5,357.5C 526.66,359.199 526.494,360.866 526,362.5C 525.503,360.19 525.337,357.857 525.5,355.5 Z"/></g>
<g><path style="opacity:1" fill="#d5d0d5" d="M 509.5,355.5 C 510.978,355.238 512.311,355.571 513.5,356.5C 512.975,357.192 512.308,357.692 511.5,358C 513.107,359.049 513.773,360.549 513.5,362.5C 511.712,362.785 510.045,362.452 508.5,361.5C 509.603,361.002 510.603,360.669 511.5,360.5C 508.807,359.468 508.14,357.802 509.5,355.5 Z"/></g>
<g><path style="opacity:1" fill="#cfcacf" d="M 474.5,355.5 C 476.167,355.5 477.833,355.5 479.5,355.5C 479.663,357.857 479.497,360.19 479,362.5C 477.701,362.034 476.201,362.034 474.5,362.5C 474.227,360.549 474.893,359.049 476.5,358C 475.244,357.583 474.577,356.75 474.5,355.5 Z"/></g>
<g><path style="opacity:1" fill="#e0dde0" d="M 515.5,355.5 C 516.978,355.238 518.311,355.571 519.5,356.5C 518.975,357.192 518.308,357.692 517.5,358C 521.449,359.687 521.449,361.187 517.5,362.5C 516.833,362.333 516.167,362.167 515.5,362C 519.456,360.886 519.456,360.053 515.5,359.5C 515.5,358.167 515.5,356.833 515.5,355.5 Z"/></g>
<g><path style="opacity:1" fill="#d7d2d7" d="M 533.5,355.5 C 539.523,355.747 539.857,357.58 534.5,361C 535.793,361.49 537.127,361.657 538.5,361.5C 538.351,365.123 537.184,365.457 535,362.5C 534.055,362.905 533.388,363.572 533,364.5C 533.38,361.448 533.547,358.448 533.5,355.5 Z"/></g>
<g><path style="opacity:1" fill="#0e0f17" d="M 188.5,361.5 C 184.493,362.505 180.493,363.505 176.5,364.5C 174.772,364.41 173.106,364.077 171.5,363.5C 170.479,364.901 169.479,366.235 168.5,367.5C 168.945,364.72 168.945,362.053 168.5,359.5C 169.328,358.585 170.328,357.919 171.5,357.5C 172.052,359.003 172.052,360.669 171.5,362.5C 177.342,362.277 183.009,361.11 188.5,359C 190.303,358.363 191.636,357.197 192.5,355.5C 193.292,357.465 193.959,359.465 194.5,361.5C 192.568,360.967 190.568,360.967 188.5,361.5 Z"/></g>
<g><path style="opacity:0.987" fill="#2432b5" d="M 207.5,361.5 C 210.199,366.899 212.866,372.232 215.5,377.5C 215.722,380.504 216.722,383.171 218.5,385.5C 219.692,388.408 220.692,391.408 221.5,394.5C 220.56,399.616 217.56,401.783 212.5,401C 209.351,399.338 206.351,397.505 203.5,395.5C 203.063,393.926 202.063,392.759 200.5,392C 192.877,386.931 184.711,383.431 176,381.5C 174.922,374.598 177.755,371.264 184.5,371.5C 184.5,370.167 184.5,368.833 184.5,367.5C 185.552,367.351 186.552,367.517 187.5,368C 188.453,369.955 189.787,371.622 191.5,373C 195.628,374.898 199.628,377.065 203.5,379.5C 204.217,373.237 205.55,367.237 207.5,361.5 Z"/></g>
<g><path style="opacity:1" fill="#5865e1" d="M 188.5,361.5 C 182.353,365.944 175.687,367.944 168.5,367.5C 169.479,366.235 170.479,364.901 171.5,363.5C 173.106,364.077 174.772,364.41 176.5,364.5C 180.493,363.505 184.493,362.505 188.5,361.5 Z"/></g>
<g><path style="opacity:0.976" fill="#2432b5" d="M 161.5,371.5 C 163.042,372.163 164.709,372.83 166.5,373.5C 165.764,375.541 164.931,377.541 164,379.5C 161.48,380.207 158.98,381.04 156.5,382C 155.837,383.518 154.837,384.685 153.5,385.5C 153.002,379.175 155.669,374.509 161.5,371.5 Z"/></g>
<g><path style="opacity:1" fill="#4a4e6c" d="M 422.5,377.5 C 456.835,377.333 491.168,377.5 525.5,378C 533.886,381.275 536.386,387.108 533,395.5C 531.039,398.135 528.539,399.969 525.5,401C 491.167,401.667 456.833,401.667 422.5,401C 411.874,393.132 411.874,385.299 422.5,377.5 Z"/></g>
<g><path style="opacity:0.989" fill="#28c978" d="M 85.5,299.5 C 88.7882,299.016 91.4548,300.016 93.5,302.5C 94.1237,304.754 95.457,306.421 97.5,307.5C 98.0256,309.23 99.0256,310.564 100.5,311.5C 107.47,319.98 114.303,328.647 121,337.5C 121.781,338.729 122.281,340.062 122.5,341.5C 116.629,357.28 110.462,372.946 104,388.5C 101.196,389.868 98.3623,390.868 95.5,391.5C 94.4226,390.982 93.2559,390.648 92,390.5C 80.1,392.381 68.2667,394.381 56.5,396.5C 53.8806,396.768 51.3806,396.435 49,395.5C 38.6407,381.974 28.474,368.308 18.5,354.5C 24.4205,338.371 31.0872,322.705 38.5,307.5C 37.9455,313.154 37.4455,318.82 37,324.5C 31.4833,334.677 25.9833,344.843 20.5,355C 27.6543,363.488 35.4877,371.321 44,378.5C 46.6985,383.558 48.5318,388.891 49.5,394.5C 50.5,394.5 51.5,394.5 52.5,394.5C 51.1983,389.782 50.0316,385.115 49,380.5C 66.3966,383.613 83.8966,386.28 101.5,388.5C 98.1816,374.543 93.8483,360.877 88.5,347.5C 99.4903,345.612 110.49,343.612 121.5,341.5C 119.833,341.167 118.167,340.833 116.5,340.5C 107.178,341.689 97.8452,342.689 88.5,343.5C 89.6043,329.165 89.6043,314.831 88.5,300.5C 84.4081,302.546 80.4081,304.546 76.5,306.5C 74.4131,305.415 73.0798,303.749 72.5,301.5C 76.7936,300.648 81.127,299.982 85.5,299.5 Z"/></g>
<g><path style="opacity:1" fill="#28cb79" d="M 85.5,348.5 C 90.7889,360.36 95.1222,372.693 98.5,385.5C 82.0872,383.573 65.7538,381.073 49.5,378C 61.3985,367.924 73.3985,358.091 85.5,348.5 Z"/></g>
<g><path style="opacity:1" fill="#05100a" d="M 96.5,347.5 C 98.7583,347.775 99.0916,348.775 97.5,350.5C 99.4046,355.98 102.071,360.98 105.5,365.5C 108.707,361.409 110.874,356.742 112,351.5C 113.156,350.007 113.99,350.174 114.5,352C 109.451,371.984 103.284,372.484 96,353.5C 94.7949,352.929 93.6283,352.262 92.5,351.5C 93.5487,349.784 94.882,348.451 96.5,347.5 Z"/></g>
<g><path style="opacity:1" fill="#28cb79" d="M 37.5,329.5 C 40.2272,342.92 42.2272,356.587 43.5,370.5C 43.1667,371.5 42.8333,372.5 42.5,373.5C 35.993,367.493 29.6596,361.326 23.5,355C 27.7909,346.248 32.4576,337.748 37.5,329.5 Z"/></g>
<g><path style="opacity:1" fill="#28cb79" d="M 40.5,327.5 C 55.1833,333.563 69.85,339.73 84.5,346C 72.5313,356.314 60.198,366.148 47.5,375.5C 45.1657,359.493 42.8323,343.493 40.5,327.5 Z"/></g>
<g><path style="opacity:1" fill="#b9cdf8" d="M 423.5,381.5 C 431.658,380.823 435.158,384.49 434,392.5C 431.774,396.861 428.274,398.361 423.5,397C 419.139,394.774 417.639,391.274 419,386.5C 420.025,384.313 421.525,382.646 423.5,381.5 Z"/></g>
<g><path style="opacity:1" fill="#f1f1f3" d="M 451.5,385.5 C 453.514,386.842 453.847,388.508 452.5,390.5C 452.529,392.029 453.196,393.196 454.5,394C 453.552,394.483 452.552,394.649 451.5,394.5C 450.924,391.393 450.924,388.393 451.5,385.5 Z"/></g>
<g><path style="opacity:1" fill="#e2e3e8" d="M 493.5,384.5 C 495.369,386.635 496.036,389.302 495.5,392.5C 496.675,392.281 497.675,392.614 498.5,393.5C 496.955,394.452 495.288,394.785 493.5,394.5C 493.5,391.167 493.5,387.833 493.5,384.5 Z"/></g>
<g><path style="opacity:1" fill="#e3e3e8" d="M 455.5,387.5 C 456.999,388.678 457.999,390.345 458.5,392.5C 459.167,390.833 459.833,389.167 460.5,387.5C 461.474,389.743 461.808,392.076 461.5,394.5C 456.094,395.265 454.094,392.931 455.5,387.5 Z"/></g>
<g><path style="opacity:1" fill="#ced0d8" d="M 477.5,387.5 C 483.235,386.821 484.902,389.155 482.5,394.5C 481.167,387.833 479.833,387.833 478.5,394.5C 477.526,392.257 477.192,389.924 477.5,387.5 Z"/></g>
<g><path style="opacity:1" fill="#dedee4" d="M 485.5,385.5 C 487.121,385.787 488.121,386.787 488.5,388.5C 487.656,390.693 487.323,392.693 487.5,394.5C 485.093,391.874 484.427,388.874 485.5,385.5 Z"/></g>
<g><path style="opacity:1" fill="#d3d4db" d="M 506.5,387.5 C 512.235,386.821 513.902,389.155 511.5,394.5C 510.833,393.5 510.167,392.5 509.5,391.5C 508.289,392.274 508.289,393.107 509.5,394C 508.552,394.483 507.552,394.649 506.5,394.5C 506.297,392.61 506.963,391.11 508.5,390C 507.244,389.583 506.577,388.75 506.5,387.5 Z"/></g>
<g><path style="opacity:1" fill="#e0e1e6" d="M 517.5,384.5 C 518.777,385.694 519.444,387.36 519.5,389.5C 519.465,395.846 518.465,395.846 516.5,389.5C 515.253,391.006 515.253,392.506 516.5,394C 514.287,394.456 513.287,393.456 513.5,391C 513.424,388.244 514.757,387.077 517.5,387.5C 517.5,386.5 517.5,385.5 517.5,384.5 Z"/></g>
<g><path style="opacity:1" fill="#e2e3e8" d="M 444.5,384.5 C 449.11,384.596 449.444,385.596 445.5,387.5C 448.744,388.845 449.744,391.012 448.5,394C 442.656,394.398 442.323,393.565 447.5,391.5C 443.975,390.127 442.975,387.794 444.5,384.5 Z"/></g>
<g><path style="opacity:1" fill="#d9dae0" d="M 467.5,384.5 C 469.402,387.337 470.069,390.671 469.5,394.5C 467.208,394.756 465.041,394.423 463,393.5C 462.013,389.652 463.513,387.652 467.5,387.5C 467.5,386.5 467.5,385.5 467.5,384.5 Z"/></g>
<g><path style="opacity:1" fill="#585b77" d="M 464.5,389.5 C 465.5,389.5 466.5,389.5 467.5,389.5C 467.5,390.5 467.5,391.5 467.5,392.5C 466.5,392.5 465.5,392.5 464.5,392.5C 464.5,391.5 464.5,390.5 464.5,389.5 Z"/></g>
<g><path style="opacity:1" fill="#cecfd7" d="M 471.5,387.5 C 474.95,386.756 476.616,388.09 476.5,391.5C 471.318,391.557 471.318,392.224 476.5,393.5C 470.74,395.213 469.074,393.213 471.5,387.5 Z"/></g>
<g><path style="opacity:1" fill="#dbdce2" d="M 500.5,387.5 C 506.268,388.643 506.602,390.309 501.5,392.5C 502.376,393.251 503.376,393.751 504.5,394C 499.57,394.427 498.237,392.26 500.5,387.5 Z"/></g>
<g><path style="opacity:1" fill="#121207" d="M 95.5,391.5 C 95.5,391.833 95.5,392.167 95.5,392.5C 92.5638,394.308 89.5638,396.141 86.5,398C 83.8916,400.398 82.2249,403.231 81.5,406.5C 80.7281,405.306 79.7281,404.306 78.5,403.5C 77.701,400.57 77.3677,397.57 77.5,394.5C 70.6203,396.276 63.9537,398.609 57.5,401.5C 57.3713,399.784 57.038,398.117 56.5,396.5C 68.2667,394.381 80.1,392.381 92,390.5C 93.2559,390.648 94.4226,390.982 95.5,391.5 Z"/></g>
<g><path style="opacity:0.967" fill="#fdc418" d="M 95.5,392.5 C 101.528,401.211 107.194,410.211 112.5,419.5C 110.958,420.301 109.292,420.634 107.5,420.5C 107.281,421.675 107.614,422.675 108.5,423.5C 110.836,422.999 112.836,421.999 114.5,420.5C 117.777,420.216 120.943,420.549 124,421.5C 123.805,423.745 122.638,425.578 120.5,427C 112.393,431.36 103.727,433.527 94.5,433.5C 91.5004,423.835 87.1671,414.835 81.5,406.5C 82.2249,403.231 83.8916,400.398 86.5,398C 89.5638,396.141 92.5638,394.308 95.5,392.5 Z"/></g>
<g><path style="opacity:0.972" fill="#fcc418" d="M 78.5,403.5 C 77.4479,409.991 75.7812,416.324 73.5,422.5C 70.7531,422.187 68.0865,422.52 65.5,423.5C 67.8318,425.775 70.4984,426.108 73.5,424.5C 77.0373,425.267 80.3707,426.6 83.5,428.5C 84.9501,429.85 85.6168,431.516 85.5,433.5C 74.5,433.5 63.5,433.5 52.5,433.5C 53.2592,427.042 54.7592,420.709 57,414.5C 57.499,410.179 57.6657,405.846 57.5,401.5C 63.9537,398.609 70.6203,396.276 77.5,394.5C 77.3677,397.57 77.701,400.57 78.5,403.5 Z"/></g>
<g><path style="opacity:0.983" fill="#3f96ef" d="M 143.5,399.5 C 165.882,398.637 186.548,403.97 205.5,415.5C 211.377,417.921 213.544,422.255 212,428.5C 210.352,429.717 208.519,430.55 206.5,431C 182.752,432.383 160.419,427.383 139.5,416C 133.748,413.607 131.581,409.44 133,403.5C 135.824,400.502 139.324,399.168 143.5,399.5 Z"/></g>
<g><path style="opacity:1" fill="#060611" d="M 149.5,409.5 C 148.5,412.167 147.5,414.833 146.5,417.5C 143.599,416.464 141.099,414.797 139,412.5C 138.333,411.5 138.333,410.5 139,409.5C 142.601,408.18 146.101,408.18 149.5,409.5 Z"/></g>
<g><path style="opacity:1" fill="#2332b5" d="M 149.5,409.5 C 163.071,410.478 176.071,413.478 188.5,418.5C 188.149,421.903 187.482,425.237 186.5,428.5C 172.477,427.269 159.143,423.602 146.5,417.5C 147.5,414.833 148.5,412.167 149.5,409.5 Z"/></g>
<g><path style="opacity:0.876" fill="#161103" d="M 112.5,419.5 C 113.492,419.328 114.158,419.662 114.5,420.5C 112.836,421.999 110.836,422.999 108.5,423.5C 107.614,422.675 107.281,421.675 107.5,420.5C 109.292,420.634 110.958,420.301 112.5,419.5 Z"/></g>
<g><path style="opacity:1" fill="#080612" d="M 188.5,418.5 C 194.873,420.186 200.54,423.186 205.5,427.5C 204.619,428.971 203.286,429.804 201.5,430C 199.5,430.167 197.5,430.333 195.5,430.5C 192.186,430.657 189.186,429.991 186.5,428.5C 187.482,425.237 188.149,421.903 188.5,418.5 Z"/></g>
<g><path style="opacity:1" fill="#1c1603" d="M 73.5,422.5 C 73.5,423.167 73.5,423.833 73.5,424.5C 70.4984,426.108 67.8318,425.775 65.5,423.5C 68.0865,422.52 70.7531,422.187 73.5,422.5 Z"/></g>
</svg>
